<?xml version="1.0" encoding="utf-8"?>
<!-- Generator: Adobe Illustrator 23.0.1, SVG Export Plug-In . SVG Version: 6.00 Build 0)  -->
<svg version="1.1" id="Layer_1" xmlns="http://www.w3.org/2000/svg" xmlns:xlink="http://www.w3.org/1999/xlink" x="0px" y="0px"
	 viewBox="0 0 507 67" style="enable-background:new 0 0 507 67;" xml:space="preserve">
<title>227E5C7A-CFAC-4ED6-B40B-79D19642CDB5</title>
<desc>Created with sketchtool.</desc>
<polygon id="Fill-1" style="fill-rule:evenodd;clip-rule:evenodd;fill:#63666A;" points="94,28.2 84.5,28.2 84.6,28.4 84.6,52 
	82.4,52 82.4,28.4 82.5,28.2 73,28.2 73,26 94,26 "/>
<polygon id="Fill-2" style="fill-rule:evenodd;clip-rule:evenodd;fill:#63666A;" points="117,52 114.8,52 114.8,40.3 115,40.1 
	99,40.1 99.2,40.3 99.2,52 97,52 97,26 99.2,26 99.2,37.7 99,37.9 115,37.9 114.8,37.7 114.8,26 117,26 "/>
<polygon id="Fill-3" style="fill-rule:evenodd;clip-rule:evenodd;fill:#63666A;" points="141,52 123,52 123,26 141,26 141,28.2 
	125,28.2 125.2,28.4 125.2,37.7 125,37.9 139.5,37.9 139.5,40.1 125,40.1 125.2,40.3 125.2,49.6 125,49.8 141,49.8 "/>
<polygon id="Fill-4" style="fill-rule:evenodd;clip-rule:evenodd;fill:#D55C19;" points="175,51.7 169.5,51.7 169.5,36.9 
	169.5,36.9 168.3,39.6 161.1,52 160.9,52 153.7,39.6 152.5,37 152.5,37 152.5,51.7 147,51.7 147,26 151.5,26 159.8,40.2 161,42.9 
	161,42.9 162.1,40.2 170.5,26 175,26 "/>
<path id="Fill-5" style="fill-rule:evenodd;clip-rule:evenodd;fill:#D55C19;" d="M192.3,30.1c-5.5,0-7.8,3.6-7.8,8.6
	c0,4.8,2.3,8.3,7.8,8.3c5.6,0,7.8-3.4,7.8-8.3C200.1,33.9,197.9,30.1,192.3,30.1 M192.3,51.8c-8.7,0-13.3-5.4-13.3-13.1
	c0-7.7,4.6-13.4,13.3-13.4c8.8,0,13.3,5.7,13.3,13.4C205.7,46.4,200.9,51.8,192.3,51.8"/>
<path id="Fill-7" style="fill-rule:evenodd;clip-rule:evenodd;fill:#D55C19;" d="M222.7,30.5h-7.6l0.5,0.5v5.7l-0.5,0.5h7.3
	c3.3,0,4.7-1.6,4.7-3.3C227.1,31.6,225.6,30.5,222.7,30.5z M235.4,51.5h-6.1l-3.6-6.8c-1.1-2-2.5-2.9-5.5-2.9h-5.2l0.5,0.5v9.3h-5.4
	V25.6h12.5c5.2,0,9.9,2.6,9.9,8.1c0,2.8-2.1,5.2-4.4,6.3v0.1c0.9,0.4,1.9,1.3,2.6,2.7L235.4,51.5z"/>
<polygon id="Fill-9" style="fill-rule:evenodd;clip-rule:evenodd;fill:#D55C19;" points="259.6,30.5 250.4,30.5 250.7,31 
	250.7,51.5 245.2,51.5 245.2,31 245.5,30.5 236.2,30.5 236.2,25.6 259.6,25.6 "/>
<path id="Fill-11" style="fill-rule:evenodd;clip-rule:evenodd;fill:#D55C19;" d="M288.1,51.5h-4.7v-2.5c-1.5,1.6-4.6,2.7-7.6,2.7
	c-8.8,0-13.8-5.1-13.8-13.1c0-8.1,5.2-13.5,14-13.5c4.2,0,8.1,1.2,10.7,4l-3.7,3.8c-1.8-2.1-4.2-2.9-7-2.9c-5.8,0-8.5,3.2-8.5,8.7
	c0,5.2,2.6,8.2,8.3,8.2c4,0,6.8-2.3,7.1-5.5l0.5-0.5h-9v-4.8h13.6V51.5z"/>
<path id="Fill-13" style="fill-rule:evenodd;clip-rule:evenodd;fill:#D55C19;" d="M310.4,40.8l-0.5-0.5l-2.7-5.6l-0.8-2.4l-0.1,0
	l-0.8,2.3l-2.7,5.6l-0.5,0.5H310.4z M321.2,51.5h-6l-2.7-5.7l0.3-0.5h-13l0.3,0.5l-2.7,5.7h-6l12.5-25.9h4.8L321.2,51.5z"/>
<path id="Fill-15" style="fill-rule:evenodd;clip-rule:evenodd;fill:#D55C19;" d="M348.6,51.5h-4.7v-2.5c-1.5,1.6-4.6,2.7-7.6,2.7
	c-8.8,0-13.8-5.1-13.8-13.1c0-8.1,5.2-13.5,14-13.5c4.2,0,8.1,1.2,10.7,4l-3.7,3.8c-1.8-2.1-4.2-2.9-7-2.9c-5.8,0-8.5,3.2-8.5,8.7
	c0,5.2,2.6,8.2,8.3,8.2c4,0,6.8-2.3,7.1-5.5L344,41h-9v-4.8h13.6V51.5z"/>
<polygon id="Fill-17" style="fill-rule:evenodd;clip-rule:evenodd;fill:#D55C19;" points="375.8,51.5 354.3,51.5 354.3,25.6 
	375.8,25.6 375.8,30.5 359.3,30.5 359.8,31 359.8,35.6 359.3,36.1 374.2,36.1 374.2,41 359.3,41 359.8,41.5 359.8,46.1 359.3,46.6 
	375.8,46.6 "/>
<path id="Fill-19" style="fill-rule:evenodd;clip-rule:evenodd;fill:#63666A;" d="M402.7,51.5h-1.8v-4.7h-0.1
	c-1.6,3.3-5.2,5.1-8.8,5.1c-7.8,0-12.2-5-12.2-13c0-8.3,4.5-13.5,12.4-13.5c3.5,0,7.1,1,9.4,3.6l-1.7,1.7c-1.9-2.3-4.9-3.1-7.7-3.1
	c-6.8,0-10.1,4.5-10.1,11.4c0,6.7,3.1,10.9,9.9,10.9c5.2,0,9-4,8.8-9.9l0.2-0.2h-8.7v-2.1h10.4V51.5z"/>
<path id="Fill-21" style="fill-rule:evenodd;clip-rule:evenodd;fill:#63666A;" d="M419.4,27.7h-8.9l0.2,0.3v10.1l-0.2,0.2h8.6
	c3.9,0,6.3-2.1,6.3-5.2C425.4,29.2,422.7,27.7,419.4,27.7z M429.7,51.5h-2.6l-3.2-6.8c-1.4-2.9-3.4-4.3-7-4.3h-6.5l0.2,0.3v10.8
	h-2.2V25.6h10.9c4.6,0,8.3,2.5,8.3,7.5c0,3.3-1.9,5.8-5.5,6.8V40c1.8,0.7,2.9,2,3.7,3.8L429.7,51.5z"/>
<path id="Fill-23" style="fill-rule:evenodd;clip-rule:evenodd;fill:#63666A;" d="M443.4,27.4c-6.8,0-9.4,5.2-9.4,11.3
	c0,6,2.7,11,9.4,11c6.8,0,9.4-5,9.4-11C452.8,32.8,450.2,27.4,443.4,27.4 M443.4,51.8c-7.7,0-11.7-5.2-11.7-13.1s4.1-13.4,11.7-13.4
	c7.7,0,11.7,5.5,11.7,13.4C455.1,46.6,451,51.8,443.4,51.8"/>
<path id="Fill-25" style="fill-rule:evenodd;clip-rule:evenodd;fill:#63666A;" d="M480.8,39.7c0,8-3.4,12.2-10.6,12.2
	c-7.2,0-10.6-4.1-10.6-12.2V25.6h2.2v14c0,6,2.2,10,8.4,10c6.1,0,8.4-4,8.4-10v-14h2.2V39.7z"/>
<path id="Fill-27" style="fill-rule:evenodd;clip-rule:evenodd;fill:#63666A;" d="M497.8,27.7h-9.4l0.2,0.2v10.9l-0.2,0.2h9.4
	c3.9,0,5.8-2.4,5.8-5.7C503.6,30,501.7,27.7,497.8,27.7 M497.8,41.3h-9.4l0.2,0.3v10h-2.2V25.6h11.5c5.3,0,8.1,3.3,8.1,7.8
	C506,37.8,503.1,41.3,497.8,41.3"/>
<polygon id="Fill-29" style="fill-rule:evenodd;clip-rule:evenodd;fill:#63666A;" points="252.3,57.8 249.3,57.8 249.4,57.9 
	249.4,65.1 248.1,65.1 248.1,57.9 248.2,57.8 245.2,57.8 245.2,56.7 252.3,56.7 "/>
<polygon id="Fill-31" style="fill-rule:evenodd;clip-rule:evenodd;fill:#63666A;" points="263.3,65.1 262,65.1 262,61.6 262.1,61.5 
	257.2,61.5 257.3,61.6 257.3,65.1 256.1,65.1 256.1,56.7 257.3,56.7 257.3,60.2 257.2,60.3 262.1,60.3 262,60.2 262,56.7 
	263.3,56.7 "/>
<g id="Clip-34">
</g>
<defs>
	<filter id="Adobe_OpacityMaskFilter" filterUnits="userSpaceOnUse" x="268.6" y="56.7" width="1.2" height="8.4">
		<feColorMatrix  type="matrix" values="1 0 0 0 0  0 1 0 0 0  0 0 1 0 0  0 0 0 1 0"/>
	</filter>
</defs>
<mask maskUnits="userSpaceOnUse" x="268.6" y="56.7" width="1.2" height="8.4" id="mask-2_1_">
	<g style="filter:url(#Adobe_OpacityMaskFilter);">
		<polygon id="path-1_1_" style="fill-rule:evenodd;clip-rule:evenodd;fill:#FFFFFF;" points="0,67 506.5,67 506.5,0.4 0,0.4 		"/>
	</g>
</mask>
<polygon id="Fill-33" style="mask:url(#mask-2_1_);fill-rule:evenodd;clip-rule:evenodd;fill:#63666A;" points="268.6,65.1 
	269.8,65.1 269.8,56.7 268.6,56.7 "/>
<defs>
	<filter id="Adobe_OpacityMaskFilter_1_" filterUnits="userSpaceOnUse" x="275.1" y="56.7" width="7.2" height="8.4">
		<feColorMatrix  type="matrix" values="1 0 0 0 0  0 1 0 0 0  0 0 1 0 0  0 0 0 1 0"/>
	</filter>
</defs>
<mask maskUnits="userSpaceOnUse" x="275.1" y="56.7" width="7.2" height="8.4" id="mask-2_2_">
	<g style="filter:url(#Adobe_OpacityMaskFilter_1_);">
		<polygon id="path-1_2_" style="fill-rule:evenodd;clip-rule:evenodd;fill:#FFFFFF;" points="0,67 506.5,67 506.5,0.4 0,0.4 		"/>
	</g>
</mask>
<polygon id="Fill-35" style="mask:url(#mask-2_2_);fill-rule:evenodd;clip-rule:evenodd;fill:#63666A;" points="282.3,65.1 
	281.2,65.1 277,59.6 276.4,58.7 276.4,58.7 276.4,65.1 275.1,65.1 275.1,56.7 276.2,56.7 280.5,62.1 281,63.1 281,63.1 281,56.7 
	282.3,56.7 "/>
<defs>
	<filter id="Adobe_OpacityMaskFilter_2_" filterUnits="userSpaceOnUse" x="287.6" y="56.7" width="7.3" height="8.4">
		<feColorMatrix  type="matrix" values="1 0 0 0 0  0 1 0 0 0  0 0 1 0 0  0 0 0 1 0"/>
	</filter>
</defs>
<mask maskUnits="userSpaceOnUse" x="287.6" y="56.7" width="7.3" height="8.4" id="mask-2_3_">
	<g style="filter:url(#Adobe_OpacityMaskFilter_2_);">
		<polygon id="path-1_3_" style="fill-rule:evenodd;clip-rule:evenodd;fill:#FFFFFF;" points="0,67 506.5,67 506.5,0.4 0,0.4 		"/>
	</g>
</mask>
<path id="Fill-36" style="mask:url(#mask-2_3_);fill-rule:evenodd;clip-rule:evenodd;fill:#63666A;" d="M294.9,65.1h-1.8l-4.2-4.3
	l4.1-4.2h1.8l-4.2,4.1v0L294.9,65.1z M287.6,65.1h1.2v-8.4h-1.2V65.1z"/>
<defs>
	<filter id="Adobe_OpacityMaskFilter_3_" filterUnits="userSpaceOnUse" x="305.4" y="56.6" width="8.2" height="8.6">
		<feColorMatrix  type="matrix" values="1 0 0 0 0  0 1 0 0 0  0 0 1 0 0  0 0 0 1 0"/>
	</filter>
</defs>
<mask maskUnits="userSpaceOnUse" x="305.4" y="56.6" width="8.2" height="8.6" id="mask-2_4_">
	<g style="filter:url(#Adobe_OpacityMaskFilter_3_);">
		<polygon id="path-1_4_" style="fill-rule:evenodd;clip-rule:evenodd;fill:#FFFFFF;" points="0,67 506.5,67 506.5,0.4 0,0.4 		"/>
	</g>
</mask>
<path id="Fill-37" style="mask:url(#mask-2_4_);fill-rule:evenodd;clip-rule:evenodd;fill:#63666A;" d="M309.5,57.7
	c-2,0-2.8,1.4-2.8,3.2c0,1.8,0.8,3.1,2.8,3.1c2,0,2.8-1.4,2.8-3.1C312.3,59.2,311.5,57.7,309.5,57.7 M309.5,65.2
	c-2.7,0-4.1-1.7-4.1-4.3c0-2.5,1.4-4.4,4.1-4.4c2.7,0,4.1,1.8,4.1,4.4C313.6,63.5,312.1,65.2,309.5,65.2"/>
<defs>
	<filter id="Adobe_OpacityMaskFilter_4_" filterUnits="userSpaceOnUse" x="318.4" y="56.7" width="7.4" height="8.5">
		<feColorMatrix  type="matrix" values="1 0 0 0 0  0 1 0 0 0  0 0 1 0 0  0 0 0 1 0"/>
	</filter>
</defs>
<mask maskUnits="userSpaceOnUse" x="318.4" y="56.7" width="7.4" height="8.5" id="mask-2_5_">
	<g style="filter:url(#Adobe_OpacityMaskFilter_4_);">
		<polygon id="path-1_5_" style="fill-rule:evenodd;clip-rule:evenodd;fill:#FFFFFF;" points="0,67 506.5,67 506.5,0.4 0,0.4 		"/>
	</g>
</mask>
<path id="Fill-38" style="mask:url(#mask-2_5_);fill-rule:evenodd;clip-rule:evenodd;fill:#63666A;" d="M325.8,61.2
	c0,2.6-1.2,4-3.7,4c-2.5,0-3.7-1.4-3.7-4v-4.6h1.2v4.5c0,1.8,0.6,2.8,2.5,2.8c1.8,0,2.5-1.1,2.5-2.8v-4.5h1.2V61.2z"/>
<defs>
	<filter id="Adobe_OpacityMaskFilter_5_" filterUnits="userSpaceOnUse" x="330.3" y="56.7" width="7.2" height="8.4">
		<feColorMatrix  type="matrix" values="1 0 0 0 0  0 1 0 0 0  0 0 1 0 0  0 0 0 1 0"/>
	</filter>
</defs>
<mask maskUnits="userSpaceOnUse" x="330.3" y="56.7" width="7.2" height="8.4" id="mask-2_6_">
	<g style="filter:url(#Adobe_OpacityMaskFilter_5_);">
		<polygon id="path-1_6_" style="fill-rule:evenodd;clip-rule:evenodd;fill:#FFFFFF;" points="0,67 506.5,67 506.5,0.4 0,0.4 		"/>
	</g>
</mask>
<polygon id="Fill-39" style="mask:url(#mask-2_6_);fill-rule:evenodd;clip-rule:evenodd;fill:#63666A;" points="337.5,57.8 
	334.5,57.8 334.5,57.9 334.5,65.1 333.3,65.1 333.3,57.9 333.4,57.8 330.3,57.8 330.3,56.7 337.5,56.7 "/>
<defs>
	<filter id="Adobe_OpacityMaskFilter_6_" filterUnits="userSpaceOnUse" x="341.6" y="56.6" width="7.3" height="8.6">
		<feColorMatrix  type="matrix" values="1 0 0 0 0  0 1 0 0 0  0 0 1 0 0  0 0 0 1 0"/>
	</filter>
</defs>
<mask maskUnits="userSpaceOnUse" x="341.6" y="56.6" width="7.3" height="8.6" id="mask-2_7_">
	<g style="filter:url(#Adobe_OpacityMaskFilter_6_);">
		<polygon id="path-1_7_" style="fill-rule:evenodd;clip-rule:evenodd;fill:#FFFFFF;" points="0,67 506.5,67 506.5,0.4 0,0.4 		"/>
	</g>
</mask>
<path id="Fill-40" style="mask:url(#mask-2_7_);fill-rule:evenodd;clip-rule:evenodd;fill:#63666A;" d="M345.4,65.2
	c-1.4,0-2.8-0.4-3.8-1.4l0.9-0.9c1,0.9,1.8,1.2,2.8,1.2c1.6,0,2.2-0.6,2.2-1.2c0-0.5-0.4-1-1.5-1.2c-0.2-0.1-1.4-0.4-1.6-0.4
	c-1.5-0.4-2.7-1-2.7-2.3c0-1.2,1.1-2.3,3.4-2.3c1.4,0,2.5,0.5,3.4,1.4l-0.9,0.9c-0.6-0.7-1.4-1.1-2.5-1.1c-1.6,0-2.2,0.6-2.2,1.1
	c0,0.5,0.5,0.8,1.9,1.2c0.2,0,1.2,0.3,1.4,0.4c1.7,0.4,2.4,1.3,2.4,2.3C348.9,64,347.9,65.2,345.4,65.2"/>
<defs>
	<filter id="Adobe_OpacityMaskFilter_7_" filterUnits="userSpaceOnUse" x="353.8" y="56.7" width="1.2" height="8.4">
		<feColorMatrix  type="matrix" values="1 0 0 0 0  0 1 0 0 0  0 0 1 0 0  0 0 0 1 0"/>
	</filter>
</defs>
<mask maskUnits="userSpaceOnUse" x="353.8" y="56.7" width="1.2" height="8.4" id="mask-2_8_">
	<g style="filter:url(#Adobe_OpacityMaskFilter_7_);">
		<polygon id="path-1_8_" style="fill-rule:evenodd;clip-rule:evenodd;fill:#FFFFFF;" points="0,67 506.5,67 506.5,0.4 0,0.4 		"/>
	</g>
</mask>
<polygon id="Fill-41" style="mask:url(#mask-2_8_);fill-rule:evenodd;clip-rule:evenodd;fill:#63666A;" points="353.8,65.1 
	355,65.1 355,56.7 353.8,56.7 "/>
<defs>
	<filter id="Adobe_OpacityMaskFilter_8_" filterUnits="userSpaceOnUse" x="360.3" y="56.7" width="7.3" height="8.4">
		<feColorMatrix  type="matrix" values="1 0 0 0 0  0 1 0 0 0  0 0 1 0 0  0 0 0 1 0"/>
	</filter>
</defs>
<mask maskUnits="userSpaceOnUse" x="360.3" y="56.7" width="7.3" height="8.4" id="mask-2_9_">
	<g style="filter:url(#Adobe_OpacityMaskFilter_8_);">
		<polygon id="path-1_9_" style="fill-rule:evenodd;clip-rule:evenodd;fill:#FFFFFF;" points="0,67 506.5,67 506.5,0.4 0,0.4 		"/>
	</g>
</mask>
<path id="Fill-42" style="mask:url(#mask-2_9_);fill-rule:evenodd;clip-rule:evenodd;fill:#63666A;" d="M363.5,57.8h-2.1l0.1,0.1
	v5.9l-0.1,0.1h2.1c2.4,0,2.8-1.4,2.8-3.1C366.4,59.2,366,57.8,363.5,57.8 M363.7,65.1h-3.4v-8.4h3.3c3.4,0,4,2.2,4,4.2
	C367.6,62.9,367.1,65.1,363.7,65.1"/>
<defs>
	<filter id="Adobe_OpacityMaskFilter_9_" filterUnits="userSpaceOnUse" x="372.5" y="56.7" width="6.5" height="8.4">
		<feColorMatrix  type="matrix" values="1 0 0 0 0  0 1 0 0 0  0 0 1 0 0  0 0 0 1 0"/>
	</filter>
</defs>
<mask maskUnits="userSpaceOnUse" x="372.5" y="56.7" width="6.5" height="8.4" id="mask-2_10_">
	<g style="filter:url(#Adobe_OpacityMaskFilter_9_);">
		<polygon id="path-1_10_" style="fill-rule:evenodd;clip-rule:evenodd;fill:#FFFFFF;" points="0,67 506.5,67 506.5,0.4 0,0.4 		"/>
	</g>
</mask>
<polygon id="Fill-43" style="mask:url(#mask-2_10_);fill-rule:evenodd;clip-rule:evenodd;fill:#63666A;" points="379,65.1 
	372.5,65.1 372.5,56.7 379,56.7 379,57.8 373.7,57.8 373.8,57.9 373.8,60.2 373.7,60.3 378.5,60.3 378.5,61.5 373.7,61.5 
	373.8,61.6 373.8,63.8 373.7,63.9 379,63.9 "/>
<defs>
	<filter id="Adobe_OpacityMaskFilter_10_" filterUnits="userSpaceOnUse" x="389.9" y="56.7" width="7.2" height="8.4">
		<feColorMatrix  type="matrix" values="1 0 0 0 0  0 1 0 0 0  0 0 1 0 0  0 0 0 1 0"/>
	</filter>
</defs>
<mask maskUnits="userSpaceOnUse" x="389.9" y="56.7" width="7.2" height="8.4" id="mask-2_11_">
	<g style="filter:url(#Adobe_OpacityMaskFilter_10_);">
		<polygon id="path-1_11_" style="fill-rule:evenodd;clip-rule:evenodd;fill:#FFFFFF;" points="0,67 506.5,67 506.5,0.4 0,0.4 		"/>
	</g>
</mask>
<polygon id="Fill-44" style="mask:url(#mask-2_11_);fill-rule:evenodd;clip-rule:evenodd;fill:#63666A;" points="397.1,57.8 
	394.1,57.8 394.1,57.9 394.1,65.1 392.9,65.1 392.9,57.9 393,57.8 389.9,57.8 389.9,56.7 397.1,56.7 "/>
<defs>
	<filter id="Adobe_OpacityMaskFilter_11_" filterUnits="userSpaceOnUse" x="401.6" y="56.7" width="7.2" height="8.4">
		<feColorMatrix  type="matrix" values="1 0 0 0 0  0 1 0 0 0  0 0 1 0 0  0 0 0 1 0"/>
	</filter>
</defs>
<mask maskUnits="userSpaceOnUse" x="401.6" y="56.7" width="7.2" height="8.4" id="mask-2_12_">
	<g style="filter:url(#Adobe_OpacityMaskFilter_11_);">
		<polygon id="path-1_12_" style="fill-rule:evenodd;clip-rule:evenodd;fill:#FFFFFF;" points="0,67 506.5,67 506.5,0.4 0,0.4 		"/>
	</g>
</mask>
<polygon id="Fill-45" style="mask:url(#mask-2_12_);fill-rule:evenodd;clip-rule:evenodd;fill:#63666A;" points="408.8,65.1 
	407.6,65.1 407.6,61.6 407.7,61.5 402.7,61.5 402.9,61.6 402.9,65.1 401.6,65.1 401.6,56.7 402.9,56.7 402.9,60.2 402.7,60.3 
	407.7,60.3 407.6,60.2 407.6,56.7 408.8,56.7 "/>
<defs>
	<filter id="Adobe_OpacityMaskFilter_12_" filterUnits="userSpaceOnUse" x="414.1" y="56.7" width="6.5" height="8.4">
		<feColorMatrix  type="matrix" values="1 0 0 0 0  0 1 0 0 0  0 0 1 0 0  0 0 0 1 0"/>
	</filter>
</defs>
<mask maskUnits="userSpaceOnUse" x="414.1" y="56.7" width="6.5" height="8.4" id="mask-2_13_">
	<g style="filter:url(#Adobe_OpacityMaskFilter_12_);">
		<polygon id="path-1_13_" style="fill-rule:evenodd;clip-rule:evenodd;fill:#FFFFFF;" points="0,67 506.5,67 506.5,0.4 0,0.4 		"/>
	</g>
</mask>
<polygon id="Fill-46" style="mask:url(#mask-2_13_);fill-rule:evenodd;clip-rule:evenodd;fill:#63666A;" points="420.5,65.1 
	414.1,65.1 414.1,56.7 420.5,56.7 420.5,57.8 415.2,57.8 415.3,57.9 415.3,60.2 415.2,60.3 420,60.3 420,61.5 415.2,61.5 
	415.3,61.6 415.3,63.8 415.2,63.9 420.5,63.9 "/>
<defs>
	<filter id="Adobe_OpacityMaskFilter_13_" filterUnits="userSpaceOnUse" x="432.2" y="56.7" width="7" height="8.4">
		<feColorMatrix  type="matrix" values="1 0 0 0 0  0 1 0 0 0  0 0 1 0 0  0 0 0 1 0"/>
	</filter>
</defs>
<mask maskUnits="userSpaceOnUse" x="432.2" y="56.7" width="7" height="8.4" id="mask-2_14_">
	<g style="filter:url(#Adobe_OpacityMaskFilter_13_);">
		<polygon id="path-1_14_" style="fill-rule:evenodd;clip-rule:evenodd;fill:#FFFFFF;" points="0,67 506.5,67 506.5,0.4 0,0.4 		"/>
	</g>
</mask>
<path id="Fill-47" style="mask:url(#mask-2_14_);fill-rule:evenodd;clip-rule:evenodd;fill:#63666A;" d="M436.2,61.3h-3l0.1,0.1v2.3
	l-0.1,0.1h3c1.2,0,1.7-0.5,1.7-1.3C437.9,61.8,437.4,61.3,436.2,61.3 M436.1,57.8h-2.8l0.1,0.1v2.1l-0.1,0.1h2.8
	c1.1,0,1.5-0.5,1.5-1.2C437.6,58.2,437.1,57.8,436.1,57.8 M436.2,65.1h-4.1v-8.4h4c1.8,0,2.7,1.1,2.7,2.3c0,0.7-0.3,1.3-0.9,1.7v0
	c0.8,0.3,1.2,1,1.2,2C439.2,64.2,438.2,65.1,436.2,65.1"/>
<defs>
	<filter id="Adobe_OpacityMaskFilter_14_" filterUnits="userSpaceOnUse" x="444" y="56.7" width="7.5" height="8.4">
		<feColorMatrix  type="matrix" values="1 0 0 0 0  0 1 0 0 0  0 0 1 0 0  0 0 0 1 0"/>
	</filter>
</defs>
<mask maskUnits="userSpaceOnUse" x="444" y="56.7" width="7.5" height="8.4" id="mask-2_15_">
	<g style="filter:url(#Adobe_OpacityMaskFilter_14_);">
		<polygon id="path-1_15_" style="fill-rule:evenodd;clip-rule:evenodd;fill:#FFFFFF;" points="0,67 506.5,67 506.5,0.4 0,0.4 		"/>
	</g>
</mask>
<path id="Fill-48" style="mask:url(#mask-2_15_);fill-rule:evenodd;clip-rule:evenodd;fill:#63666A;" d="M447.8,57.8h-2.7l0.1,0.1
	v2.5l-0.1,0.1h2.6c1.2,0,1.8-0.6,1.8-1.4C449.5,58.2,448.8,57.8,447.8,57.8z M451.5,65.1h-1.4l-1.1-2.2c-0.4-0.8-1-1.1-2-1.1h-1.9
	l0.1,0.1v3.3H444v-8.4h3.8c1.6,0,3,0.8,3,2.5c0,1-0.7,1.8-1.6,2.1v0c0.3,0.1,0.7,0.5,1,1L451.5,65.1z"/>
<defs>
	<filter id="Adobe_OpacityMaskFilter_15_" filterUnits="userSpaceOnUse" x="455.1" y="56.7" width="8.9" height="8.4">
		<feColorMatrix  type="matrix" values="1 0 0 0 0  0 1 0 0 0  0 0 1 0 0  0 0 0 1 0"/>
	</filter>
</defs>
<mask maskUnits="userSpaceOnUse" x="455.1" y="56.7" width="8.9" height="8.4" id="mask-2_16_">
	<g style="filter:url(#Adobe_OpacityMaskFilter_15_);">
		<polygon id="path-1_16_" style="fill-rule:evenodd;clip-rule:evenodd;fill:#FFFFFF;" points="0,67 506.5,67 506.5,0.4 0,0.4 		"/>
	</g>
</mask>
<path id="Fill-49" style="mask:url(#mask-2_16_);fill-rule:evenodd;clip-rule:evenodd;fill:#63666A;" d="M461.2,61.9l-0.1-0.1
	l-1.3-2.9l-0.2-0.8h0l-0.2,0.8l-1.3,2.9l-0.1,0.1H461.2z M464,65.1h-1.4l-0.9-2l0.1-0.1h-4.5l0.1,0.1l-0.9,2h-1.4l3.8-8.4h1.2
	L464,65.1z"/>
<defs>
	<filter id="Adobe_OpacityMaskFilter_16_" filterUnits="userSpaceOnUse" x="468.5" y="56.7" width="7.2" height="8.4">
		<feColorMatrix  type="matrix" values="1 0 0 0 0  0 1 0 0 0  0 0 1 0 0  0 0 0 1 0"/>
	</filter>
</defs>
<mask maskUnits="userSpaceOnUse" x="468.5" y="56.7" width="7.2" height="8.4" id="mask-2_17_">
	<g style="filter:url(#Adobe_OpacityMaskFilter_16_);">
		<polygon id="path-1_17_" style="fill-rule:evenodd;clip-rule:evenodd;fill:#FFFFFF;" points="0,67 506.5,67 506.5,0.4 0,0.4 		"/>
	</g>
</mask>
<polygon id="Fill-50" style="mask:url(#mask-2_17_);fill-rule:evenodd;clip-rule:evenodd;fill:#63666A;" points="475.6,65.1 
	474.5,65.1 470.3,59.6 469.7,58.7 469.7,58.7 469.7,65.1 468.5,65.1 468.5,56.7 469.6,56.7 473.8,62.1 474.4,63.1 474.4,63.1 
	474.4,56.7 475.6,56.7 "/>
<defs>
	<filter id="Adobe_OpacityMaskFilter_17_" filterUnits="userSpaceOnUse" x="480.5" y="56.6" width="7.5" height="8.6">
		<feColorMatrix  type="matrix" values="1 0 0 0 0  0 1 0 0 0  0 0 1 0 0  0 0 0 1 0"/>
	</filter>
</defs>
<mask maskUnits="userSpaceOnUse" x="480.5" y="56.6" width="7.5" height="8.6" id="mask-2_18_">
	<g style="filter:url(#Adobe_OpacityMaskFilter_17_);">
		<polygon id="path-1_18_" style="fill-rule:evenodd;clip-rule:evenodd;fill:#FFFFFF;" points="0,67 506.5,67 506.5,0.4 0,0.4 		"/>
	</g>
</mask>
<path id="Fill-51" style="mask:url(#mask-2_18_);fill-rule:evenodd;clip-rule:evenodd;fill:#63666A;" d="M487.2,58.8
	c-0.5-0.7-1.2-1.1-2.4-1.1c-2.1,0-3,1.4-3,3.2c0,1.7,0.8,3.1,3,3.1c1.1,0,1.8-0.4,2.4-1.1l0.9,0.9c-0.8,0.9-1.9,1.3-3.3,1.3
	c-2.8,0-4.3-1.7-4.3-4.3c0-2.5,1.5-4.4,4.3-4.4c1.4,0,2.5,0.5,3.3,1.3L487.2,58.8z"/>
<defs>
	<filter id="Adobe_OpacityMaskFilter_18_" filterUnits="userSpaceOnUse" x="492.7" y="56.7" width="7.2" height="8.4">
		<feColorMatrix  type="matrix" values="1 0 0 0 0  0 1 0 0 0  0 0 1 0 0  0 0 0 1 0"/>
	</filter>
</defs>
<mask maskUnits="userSpaceOnUse" x="492.7" y="56.7" width="7.2" height="8.4" id="mask-2_19_">
	<g style="filter:url(#Adobe_OpacityMaskFilter_18_);">
		<polygon id="path-1_19_" style="fill-rule:evenodd;clip-rule:evenodd;fill:#FFFFFF;" points="0,67 506.5,67 506.5,0.4 0,0.4 		"/>
	</g>
</mask>
<polygon id="Fill-52" style="mask:url(#mask-2_19_);fill-rule:evenodd;clip-rule:evenodd;fill:#63666A;" points="499.9,65.1 
	498.6,65.1 498.6,61.6 498.8,61.5 493.8,61.5 494,61.6 494,65.1 492.7,65.1 492.7,56.7 494,56.7 494,60.2 493.8,60.3 498.8,60.3 
	498.6,60.2 498.6,56.7 499.9,56.7 "/>
<defs>
	<filter id="Adobe_OpacityMaskFilter_19_" filterUnits="userSpaceOnUse" x="503" y="56.7" width="3.5" height="3.5">
		<feColorMatrix  type="matrix" values="1 0 0 0 0  0 1 0 0 0  0 0 1 0 0  0 0 0 1 0"/>
	</filter>
</defs>
<mask maskUnits="userSpaceOnUse" x="503" y="56.7" width="3.5" height="3.5" id="mask-2_20_">
	<g style="filter:url(#Adobe_OpacityMaskFilter_19_);">
		<polygon id="path-1_20_" style="fill-rule:evenodd;clip-rule:evenodd;fill:#FFFFFF;" points="0,67 506.5,67 506.5,0.4 0,0.4 		"/>
	</g>
</mask>
<path id="Fill-53" style="mask:url(#mask-2_20_);fill-rule:evenodd;clip-rule:evenodd;fill:#63666A;" d="M504.8,57.8h-0.6l0,0v0.4
	l0,0h0.5c0.2,0,0.3-0.1,0.3-0.3C505.1,57.8,505,57.8,504.8,57.8z M505.7,59.4h-0.4l-0.2-0.5c-0.1-0.2-0.2-0.2-0.4-0.2h-0.4l0,0v0.7
	h-0.4v-2h0.9c0.4,0,0.7,0.2,0.7,0.6c0,0.2-0.1,0.4-0.3,0.5c0.1,0,0.1,0.1,0.2,0.2L505.7,59.4z M504.7,57c-0.8,0-1.4,0.7-1.4,1.4
	c0,0.8,0.6,1.4,1.4,1.4c0.8,0,1.4-0.7,1.4-1.4C506.1,57.6,505.5,57,504.7,57z M504.7,60.1c-1,0-1.7-0.8-1.7-1.7c0-1,0.8-1.7,1.7-1.7
	c1,0,1.7,0.8,1.7,1.7C506.5,59.4,505.7,60.1,504.7,60.1z"/>
<defs>
	<filter id="Adobe_OpacityMaskFilter_20_" filterUnits="userSpaceOnUse" x="10.8" y="51.3" width="45.1" height="11">
		<feColorMatrix  type="matrix" values="1 0 0 0 0  0 1 0 0 0  0 0 1 0 0  0 0 0 1 0"/>
	</filter>
</defs>
<mask maskUnits="userSpaceOnUse" x="10.8" y="51.3" width="45.1" height="11" id="mask-2_21_">
	<g style="filter:url(#Adobe_OpacityMaskFilter_20_);">
		<polygon id="path-1_21_" style="fill-rule:evenodd;clip-rule:evenodd;fill:#FFFFFF;" points="0,67 506.5,67 506.5,0.4 0,0.4 		"/>
	</g>
</mask>
<path id="Fill-54" style="mask:url(#mask-2_21_);fill-rule:evenodd;clip-rule:evenodd;fill:#63666A;" d="M33.3,62.3
	c9.2,0,17.3-4.3,22.6-11H10.8C16,58,24.2,62.3,33.3,62.3"/>
<defs>
	<filter id="Adobe_OpacityMaskFilter_21_" filterUnits="userSpaceOnUse" x="4.7" y="5.1" width="57.3" height="44.4">
		<feColorMatrix  type="matrix" values="1 0 0 0 0  0 1 0 0 0  0 0 1 0 0  0 0 0 1 0"/>
	</filter>
</defs>
<mask maskUnits="userSpaceOnUse" x="4.7" y="5.1" width="57.3" height="44.4" id="mask-2_22_">
	<g style="filter:url(#Adobe_OpacityMaskFilter_21_);">
		<polygon id="path-1_22_" style="fill-rule:evenodd;clip-rule:evenodd;fill:#FFFFFF;" points="0,67 506.5,67 506.5,0.4 0,0.4 		"/>
	</g>
</mask>
<path id="Fill-55" style="mask:url(#mask-2_22_);fill-rule:evenodd;clip-rule:evenodd;fill:#63666A;" d="M60.9,25.8H48L42.2,20
	l-5.9,5.9h-2.6l8.5-8.5l6.6,6.6h11.5c-4-11-14.5-18.9-27-18.9s-23,7.9-27,18.9l11.9,0L33.5,8.7l6.7,6.7l-1.3,1.3l-5.4-5.4L19,25.8
	l-13.2,0c-0.7,2.5-1.1,5.1-1.1,7.9c0,5.8,1.8,11.3,4.8,15.8h47.8c3-4.5,4.8-10,4.8-15.8C62,31,61.6,28.3,60.9,25.8"/>
<defs>
	<filter id="Adobe_OpacityMaskFilter_22_" filterUnits="userSpaceOnUse" x="0" y="0.4" width="66.7" height="66.6">
		<feColorMatrix  type="matrix" values="1 0 0 0 0  0 1 0 0 0  0 0 1 0 0  0 0 0 1 0"/>
	</filter>
</defs>
<mask maskUnits="userSpaceOnUse" x="0" y="0.4" width="66.7" height="66.6" id="mask-2_23_">
	<g style="filter:url(#Adobe_OpacityMaskFilter_22_);">
		<polygon id="path-1_23_" style="fill-rule:evenodd;clip-rule:evenodd;fill:#FFFFFF;" points="0,67 506.5,67 506.5,0.4 0,0.4 		"/>
	</g>
</mask>
<path id="Fill-56" style="mask:url(#mask-2_23_);fill-rule:evenodd;clip-rule:evenodd;fill:#63666A;" d="M33.3,2.6
	c-17.2,0-31.1,14-31.1,31.1c0,17.2,14,31.1,31.1,31.1c17.2,0,31.1-14,31.1-31.1C64.5,16.5,50.5,2.6,33.3,2.6 M33.3,67
	C15,67,0,52.1,0,33.7C0,15.3,15,0.4,33.3,0.4s33.3,14.9,33.3,33.3C66.7,52.1,51.7,67,33.3,67"/>
<defs>
	<filter id="Adobe_OpacityMaskFilter_23_" filterUnits="userSpaceOnUse" x="7.4" y="30.3" width="14" height="14.7">
		<feColorMatrix  type="matrix" values="1 0 0 0 0  0 1 0 0 0  0 0 1 0 0  0 0 0 1 0"/>
	</filter>
</defs>
<mask maskUnits="userSpaceOnUse" x="7.4" y="30.3" width="14" height="14.7" id="mask-2_24_">
	<g style="filter:url(#Adobe_OpacityMaskFilter_23_);">
		<polygon id="path-1_24_" style="fill-rule:evenodd;clip-rule:evenodd;fill:#FFFFFF;" points="0,67 506.5,67 506.5,0.4 0,0.4 		"/>
	</g>
</mask>
<polygon id="Fill-57" style="mask:url(#mask-2_24_);fill-rule:evenodd;clip-rule:evenodd;fill:#D55C19;" points="21.3,33.4 16,33.4 
	16.1,33.7 16.1,45 12.5,45 12.5,33.7 12.7,33.4 7.4,33.4 7.4,30.3 21.3,30.3 "/>
<defs>
	<filter id="Adobe_OpacityMaskFilter_24_" filterUnits="userSpaceOnUse" x="23" y="30.1" width="16.7" height="15.1">
		<feColorMatrix  type="matrix" values="1 0 0 0 0  0 1 0 0 0  0 0 1 0 0  0 0 0 1 0"/>
	</filter>
</defs>
<mask maskUnits="userSpaceOnUse" x="23" y="30.1" width="16.7" height="15.1" id="mask-2_25_">
	<g style="filter:url(#Adobe_OpacityMaskFilter_24_);">
		<polygon id="path-1_25_" style="fill-rule:evenodd;clip-rule:evenodd;fill:#FFFFFF;" points="0,67 506.5,67 506.5,0.4 0,0.4 		"/>
	</g>
</mask>
<polygon id="Fill-58" style="mask:url(#mask-2_25_);fill-rule:evenodd;clip-rule:evenodd;fill:#D55C19;" points="39.7,45 36,45 
	36,37.1 36,37.1 35.3,38.7 31.3,45.2 31.3,45.2 27.4,38.7 26.6,37.1 26.6,37.1 26.6,45 23,45 23,30.1 26,30.1 30.7,38 31.3,39.3 
	31.3,39.3 31.9,38 36.7,30.1 39.7,30.1 "/>
<defs>
	<filter id="Adobe_OpacityMaskFilter_25_" filterUnits="userSpaceOnUse" x="41.4" y="30.1" width="15.4" height="15.2">
		<feColorMatrix  type="matrix" values="1 0 0 0 0  0 1 0 0 0  0 0 1 0 0  0 0 0 1 0"/>
	</filter>
</defs>
<mask maskUnits="userSpaceOnUse" x="41.4" y="30.1" width="15.4" height="15.2" id="mask-2_26_">
	<g style="filter:url(#Adobe_OpacityMaskFilter_25_);">
		<polygon id="path-1_26_" style="fill-rule:evenodd;clip-rule:evenodd;fill:#FFFFFF;" points="0,67 506.5,67 506.5,0.4 0,0.4 		"/>
	</g>
</mask>
<path id="Fill-59" style="mask:url(#mask-2_26_);fill-rule:evenodd;clip-rule:evenodd;fill:#D55C19;" d="M56.8,45.1h-3.1V44
	c-0.9,0.8-2.6,1.3-4.1,1.3c-5.2,0-8.2-3-8.2-7.5c0-4.6,3.1-7.8,8.3-7.8c2.7,0,4.9,0.9,6.2,2.3l-2.4,2.4c-0.9-1.1-2.2-1.6-3.8-1.6
	c-3.2,0-4.6,1.7-4.6,4.6c0,2.8,1.4,4.4,4.5,4.4c2.1,0,3.6-1,3.9-2.6l0.3-0.3h-5.2v-3.1h8.3V45.1z"/>
<defs>
	<filter id="Adobe_OpacityMaskFilter_26_" filterUnits="userSpaceOnUse" x="10.8" y="51.3" width="45.1" height="11">
		<feColorMatrix  type="matrix" values="1 0 0 0 0  0 1 0 0 0  0 0 1 0 0  0 0 0 1 0"/>
	</filter>
</defs>
<mask maskUnits="userSpaceOnUse" x="10.8" y="51.3" width="45.1" height="11" id="mask-2_27_">
	<g style="filter:url(#Adobe_OpacityMaskFilter_26_);">
		<polygon id="path-1_27_" style="fill-rule:evenodd;clip-rule:evenodd;fill:#FFFFFF;" points="0,67 506.5,67 506.5,0.4 0,0.4 		"/>
	</g>
</mask>
<path id="Fill-60" style="mask:url(#mask-2_27_);fill-rule:evenodd;clip-rule:evenodd;fill:#63666A;" d="M33.3,62.3
	c9.2,0,17.3-4.3,22.6-11H10.8C16,58,24.2,62.3,33.3,62.3"/>
<defs>
	<filter id="Adobe_OpacityMaskFilter_27_" filterUnits="userSpaceOnUse" x="7.4" y="30.3" width="14" height="14.7">
		<feColorMatrix  type="matrix" values="1 0 0 0 0  0 1 0 0 0  0 0 1 0 0  0 0 0 1 0"/>
	</filter>
</defs>
<mask maskUnits="userSpaceOnUse" x="7.4" y="30.3" width="14" height="14.7" id="mask-2_28_">
	<g style="filter:url(#Adobe_OpacityMaskFilter_27_);">
		<polygon id="path-1_28_" style="fill-rule:evenodd;clip-rule:evenodd;fill:#FFFFFF;" points="0,67 506.5,67 506.5,0.4 0,0.4 		"/>
	</g>
</mask>
<polygon id="Fill-61" style="mask:url(#mask-2_28_);fill-rule:evenodd;clip-rule:evenodd;fill:#D55C19;" points="21.3,33.4 16,33.4 
	16.1,33.7 16.1,45 12.5,45 12.5,33.7 12.7,33.4 7.4,33.4 7.4,30.3 21.3,30.3 "/>
<defs>
	<filter id="Adobe_OpacityMaskFilter_28_" filterUnits="userSpaceOnUse" x="23" y="30.1" width="16.7" height="15.1">
		<feColorMatrix  type="matrix" values="1 0 0 0 0  0 1 0 0 0  0 0 1 0 0  0 0 0 1 0"/>
	</filter>
</defs>
<mask maskUnits="userSpaceOnUse" x="23" y="30.1" width="16.7" height="15.1" id="mask-2_29_">
	<g style="filter:url(#Adobe_OpacityMaskFilter_28_);">
		<polygon id="path-1_29_" style="fill-rule:evenodd;clip-rule:evenodd;fill:#FFFFFF;" points="0,67 506.5,67 506.5,0.4 0,0.4 		"/>
	</g>
</mask>
<polygon id="Fill-62" style="mask:url(#mask-2_29_);fill-rule:evenodd;clip-rule:evenodd;fill:#D55C19;" points="39.7,45 36,45 
	36,37.1 36,37.1 35.3,38.7 31.3,45.2 31.3,45.2 27.4,38.7 26.6,37.1 26.6,37.1 26.6,45 23,45 23,30.1 26,30.1 30.7,38 31.3,39.3 
	31.3,39.3 31.9,38 36.7,30.1 39.7,30.1 "/>
<defs>
	<filter id="Adobe_OpacityMaskFilter_29_" filterUnits="userSpaceOnUse" x="41.4" y="30.1" width="15.4" height="15.2">
		<feColorMatrix  type="matrix" values="1 0 0 0 0  0 1 0 0 0  0 0 1 0 0  0 0 0 1 0"/>
	</filter>
</defs>
<mask maskUnits="userSpaceOnUse" x="41.4" y="30.1" width="15.4" height="15.2" id="mask-2_30_">
	<g style="filter:url(#Adobe_OpacityMaskFilter_29_);">
		<polygon id="path-1_30_" style="fill-rule:evenodd;clip-rule:evenodd;fill:#FFFFFF;" points="0,67 506.5,67 506.5,0.4 0,0.4 		"/>
	</g>
</mask>
<path id="Fill-63" style="mask:url(#mask-2_30_);fill-rule:evenodd;clip-rule:evenodd;fill:#D55C19;" d="M56.8,45.1h-3.1V44
	c-0.9,0.8-2.6,1.3-4.1,1.3c-5.2,0-8.2-3-8.2-7.5c0-4.6,3.1-7.8,8.3-7.8c2.7,0,4.9,0.9,6.2,2.3l-2.4,2.4c-0.9-1.1-2.2-1.6-3.8-1.6
	c-3.2,0-4.6,1.7-4.6,4.6c0,2.8,1.4,4.4,4.5,4.4c2.1,0,3.6-1,3.9-2.6l0.3-0.3h-5.2v-3.1h8.3V45.1z"/>
</svg>
