<?xml version="1.0" encoding="utf-8"?>
<!-- Generator: Adobe Illustrator 23.0.3, SVG Export Plug-In . SVG Version: 6.00 Build 0)  -->
<svg version="1.1" id="Layer_1" xmlns="http://www.w3.org/2000/svg" xmlns:xlink="http://www.w3.org/1999/xlink" x="0px" y="0px"
	 viewBox="0 0 883.4 118.2" style="enable-background:new 0 0 883.4 118.2;" xml:space="preserve">
<g>
	<path id="Fill-31" style="fill-rule:evenodd;clip-rule:evenodd;fill:#FFFFFF;" d="M59.4,110.1c16.4,0,31-7.7,40.4-19.6H19
		C28.4,102.5,43,110.1,59.4,110.1"/>
	<path id="Fill-33" style="fill-rule:evenodd;clip-rule:evenodd;fill:#FFFFFF;" d="M59.4,3.3c-30.9,0-56.1,25-56.1,55.8
		s25.2,55.8,56.1,55.8s56.1-25,56.1-55.8S90.3,3.3,59.4,3.3 M59.4,118.2C26.6,118.2,0,91.7,0,59.1S26.6,0,59.4,0
		s59.4,26.5,59.4,59.1S92.2,118.2,59.4,118.2"/>
	<path id="Fill-35" style="fill-rule:evenodd;clip-rule:evenodd;fill:#FFFFFF;" d="M101.5,79.5h-5.6v-2.1c-1.6,1.4-4.7,2.4-7.4,2.4
		c-9.3,0-14.6-5.3-14.6-13.4c0-8.3,5.5-13.8,14.8-13.8c4.8,0,8.8,1.6,11.2,4.1L95.6,61c-1.6-1.9-3.9-2.9-6.8-2.9
		c-5.7,0-8.3,3-8.3,8.2c0,5,2.5,7.8,8.1,7.8c3.8,0,6.5-1.9,7-4.6l0.6-0.6h-9.4v-5.6h14.8L101.5,79.5L101.5,79.5z M70.8,79.3h-6.5
		V65.2h-0.1L62.9,68l-7,11.6h-0.1l-7-11.6l-1.3-2.8h-0.1v14.1h-6.5V52.7h5.4l8.5,14.1l1,2.3h0.1l1-2.3l8.6-14.1h5.4v26.6H70.8z
		 M37.9,58.5h-9.6l0.3,0.6v20.1h-6.5V59.1l0.3-0.6h-9.6V53h25v5.5H37.9z M108.8,45H85.7L75.2,34.6L64.7,45.1H60L75.2,30L87,41.8
		h20.7C100.6,22.1,81.6,8,59.4,8S18.2,22.1,11.1,41.8h21.2l27.3-27.2l12,11.9l-2.3,2.3l-9.6-9.6L33.7,45H10c-1.3,4.5-2,9.2-2,14
		c0,10.4,3.1,20.1,8.5,28.2h85.6c5.4-8.1,8.5-17.7,8.5-28.2C110.7,54.2,110,49.5,108.8,45z"/>
	<polygon id="Fill-1" style="fill-rule:evenodd;clip-rule:evenodd;fill:#FFFFFF;" points="171.3,48.5 154.9,48.5 155,48.8 155,89.6 
		151.2,89.6 151.2,48.8 151.4,48.5 135,48.5 135,44.7 171.3,44.7 	"/>
	<polygon id="Fill-2" style="fill-rule:evenodd;clip-rule:evenodd;fill:#FFFFFF;" points="211,89.6 207.2,89.6 207.2,69.3 207.5,69 
		179.9,69 180.2,69.3 180.2,89.6 176.4,89.6 176.4,44.7 180.2,44.7 180.2,64.9 179.9,65.2 207.5,65.2 207.2,64.9 207.2,44.7 
		211,44.7 	"/>
	<polygon id="Fill-3" style="fill-rule:evenodd;clip-rule:evenodd;fill:#FFFFFF;" points="252.4,89.6 221.3,89.6 221.3,44.7 
		252.4,44.7 252.4,48.5 224.8,48.5 225.1,48.8 225.1,64.9 224.8,65.2 249.8,65.2 249.8,69 224.8,69 225.1,69.3 225.1,85.4 
		224.8,85.8 252.4,85.8 	"/>
	<polygon id="Fill-4" style="fill-rule:evenodd;clip-rule:evenodd;fill:#FFFFFF;" points="311.1,89 301.6,89 301.6,63.5 301.6,63.5 
		299.6,68.1 287.1,89.6 286.8,89.6 274.4,68.1 272.3,63.6 272.3,63.6 272.3,89 262.8,89 262.8,44.7 270.6,44.7 284.9,69.2 287,73.8 
		287,73.8 288.9,69.2 303.4,44.7 311.1,44.7 	"/>
	<path id="Fill-5" style="fill-rule:evenodd;clip-rule:evenodd;fill:#FFFFFF;" d="M341,51.7c-9.5,0-13.5,6.2-13.5,14.9
		c0,8.3,4,14.3,13.5,14.3c9.7,0,13.5-5.9,13.5-14.3C354.5,58.3,350.7,51.7,341,51.7 M341,89.2c-15,0-23-9.3-23-22.6
		s7.9-23.1,23-23.1c15.2,0,23,9.8,23,23.1C364.1,79.9,355.9,89.2,341,89.2"/>
	<path id="Fill-7" style="fill-rule:evenodd;clip-rule:evenodd;fill:#FFFFFF;" d="M393.5,52.4h-13.1l0.9,0.9v9.8l-0.9,0.9H393
		c5.7,0,8.1-2.8,8.1-5.7C401.1,54.3,398.5,52.4,393.5,52.4z M415.4,88.7h-10.5l-6.2-11.7c-1.9-3.5-4.3-5-9.5-5h-9l0.9,0.9v16.1h-9.3
		V44h21.6c9,0,17.1,4.5,17.1,14c0,4.8-3.6,9-7.6,10.9V69c1.6,0.7,3.3,2.2,4.5,4.7L415.4,88.7z"/>
	<polygon id="Fill-9" style="fill-rule:evenodd;clip-rule:evenodd;fill:#FFFFFF;" points="457.2,52.4 441.3,52.4 441.9,53.3 
		441.9,88.7 432.4,88.7 432.4,53.3 432.9,52.4 416.8,52.4 416.8,44 457.2,44 	"/>
	<path id="Fill-11" style="fill-rule:evenodd;clip-rule:evenodd;fill:#FFFFFF;" d="M506.4,88.7h-8.1v-4.3c-2.6,2.8-7.9,4.7-13.1,4.7
		c-15.2,0-23.8-8.8-23.8-22.6c0-14,9-23.3,24.2-23.3c7.3,0,14,2.1,18.5,6.9l-6.4,6.6c-3.1-3.6-7.3-5-12.1-5c-10,0-14.7,5.5-14.7,15
		c0,9,4.5,14.2,14.3,14.2c6.9,0,11.7-4,12.3-9.5l0.9-0.9h-15.5v-8.3h23.5v26.6H506.4z"/>
	<path id="Fill-13" style="fill-rule:evenodd;clip-rule:evenodd;fill:#FFFFFF;" d="M544.9,70.2l-0.9-0.9l-4.7-9.7l-1.4-4.1h-0.2
		l-1.4,4l-4.7,9.7L531,70h14V70.2z M563.6,88.7h-10.4l-4.7-9.8l0.5-0.9h-22.4l0.5,0.9l-4.7,9.8h-10.4L533.7,44h8.3L563.6,88.7z"/>
	<path id="Fill-15" style="fill-rule:evenodd;clip-rule:evenodd;fill:#FFFFFF;" d="M610.9,88.7h-8.1v-4.3c-2.6,2.8-7.9,4.7-13.1,4.7
		c-15.2,0-23.8-8.8-23.8-22.6c0-14,9-23.3,24.2-23.3c7.3,0,14,2.1,18.5,6.9l-6.4,6.6c-3.1-3.6-7.3-5-12.1-5c-10,0-14.7,5.5-14.7,15
		c0,9,4.5,14.2,14.3,14.2c6.9,0,11.7-4,12.3-9.5l1-0.7h-15.5v-8.3h23.5V88.7z"/>
	<polygon id="Fill-17" style="fill-rule:evenodd;clip-rule:evenodd;fill:#FFFFFF;" points="657.9,88.7 620.7,88.7 620.7,44 
		657.9,44 657.9,52.4 629.4,52.4 630.2,53.3 630.2,61.2 629.4,62.1 655.1,62.1 655.1,70.6 629.4,70.6 630.2,71.4 630.2,79.4 
		629.4,80.2 657.9,80.2 	"/>
	<path id="Fill-19" style="fill-rule:evenodd;clip-rule:evenodd;fill:#FFFFFF;" d="M704.3,88.7h-3.1v-8.1H701
		c-2.8,5.7-9,8.8-15.2,8.8c-13.5,0-21.1-8.6-21.1-22.4c0-14.3,7.8-23.3,21.4-23.3c6,0,12.3,1.7,16.2,6.2l-2.9,2.9
		c-3.3-4-8.5-5.4-13.3-5.4c-11.7,0-17.4,7.8-17.4,19.7c0,11.6,5.4,18.8,17.1,18.8c9,0,15.5-6.9,15.2-17.1l0.3-0.3h-15v-3.6h18
		L704.3,88.7L704.3,88.7z"/>
	<path id="Fill-21" style="fill-rule:evenodd;clip-rule:evenodd;fill:#FFFFFF;" d="M733.2,47.6h-15.4l0.3,0.5v17.4l-0.3,0.3h14.9
		c6.7,0,10.9-3.6,10.9-9C743.5,50.2,738.9,47.6,733.2,47.6z M750.9,88.7h-4.5l-5.5-11.7c-2.4-5-5.9-7.4-12.1-7.4h-11.2L718,70v18.6
		h-3.8V44H733c7.9,0,14.3,4.3,14.3,13c0,5.7-3.3,10-9.5,11.7v0.2c3.1,1.2,5,3.5,6.4,6.6L750.9,88.7z"/>
	<path id="Fill-23" style="fill-rule:evenodd;clip-rule:evenodd;fill:#FFFFFF;" d="M774.6,47.1c-11.7,0-16.2,9-16.2,19.5
		c0,10.4,4.7,19,16.2,19c11.7,0,16.2-8.6,16.2-19C790.8,56.4,786.3,47.1,774.6,47.1 M774.6,89.2c-13.3,0-20.2-9-20.2-22.6
		s7.1-23.1,20.2-23.1c13.3,0,20.2,9.5,20.2,23.1S787.7,89.2,774.6,89.2"/>
	<path id="Fill-25" style="fill-rule:evenodd;clip-rule:evenodd;fill:#FFFFFF;" d="M839.2,68.3c0,13.8-5.9,21.1-18.3,21.1
		c-12.4,0-18.3-7.1-18.3-21.1V44h3.8v24.2c0,10.4,3.8,17.3,14.5,17.3c10.5,0,14.5-6.9,14.5-17.3V44h3.8V68.3z"/>
	<path id="Fill-27" style="fill-rule:evenodd;clip-rule:evenodd;fill:#FFFFFF;" d="M868.5,47.6h-16.2l0.3,0.3v18.8l-0.3,0.3h16.2
		c6.7,0,10-4.1,10-9.8C878.6,51.6,875.3,47.6,868.5,47.6 M868.5,71.1h-16.2l0.3,0.5v17.3h-3.8V44h19.9c9.2,0,14,5.7,14,13.5
		C882.7,65,877.7,71.1,868.5,71.1"/>
	<polygon id="Fill-29" style="fill-rule:evenodd;clip-rule:evenodd;fill:#FFFFFF;" points="444.6,99.6 439.4,99.6 439.6,99.7 
		439.6,112.2 437.4,112.2 437.4,99.7 437.5,99.6 432.4,99.6 432.4,97.7 444.6,97.7 	"/>
	<polygon id="Fill-31_1_" style="fill-rule:evenodd;clip-rule:evenodd;fill:#FFFFFF;" points="463.6,112.2 461.4,112.2 461.4,106.1 
		461.5,106 453.1,106 453.2,106.1 453.2,112.2 451.2,112.2 451.2,97.7 453.2,97.7 453.2,103.7 453.1,103.9 461.5,103.9 461.4,103.7 
		461.4,97.7 463.6,97.7 	"/>
	<defs>
		<filter id="Adobe_OpacityMaskFilter" filterUnits="userSpaceOnUse" x="472.8" y="97.7" width="2.1" height="14.5">
			<feColorMatrix  type="matrix" values="1 0 0 0 0  0 1 0 0 0  0 0 1 0 0  0 0 0 1 0"/>
		</filter>
	</defs>
	<mask maskUnits="userSpaceOnUse" x="472.8" y="97.7" width="2.1" height="14.5" id="mask-2_19_">
		<g style="filter:url(#Adobe_OpacityMaskFilter);">
			<polygon id="path-1_19_" style="fill-rule:evenodd;clip-rule:evenodd;fill:#FFFFFF;" points="8.9,115.5 883.6,115.5 883.6,0.4 
				8.9,0.4 			"/>
		</g>
	</mask>
	<polygon id="Fill-33_1_" style="mask:url(#mask-2_19_);fill-rule:evenodd;clip-rule:evenodd;fill:#FFFFFF;" points="472.8,112.2 
		474.8,112.2 474.8,97.7 472.8,97.7 	"/>
	<defs>
		<filter id="Adobe_OpacityMaskFilter_1_" filterUnits="userSpaceOnUse" x="484" y="97.7" width="12.4" height="14.5">
			<feColorMatrix  type="matrix" values="1 0 0 0 0  0 1 0 0 0  0 0 1 0 0  0 0 0 1 0"/>
		</filter>
	</defs>
	<mask maskUnits="userSpaceOnUse" x="484" y="97.7" width="12.4" height="14.5" id="Fill-35_2_">
		<g style="filter:url(#Adobe_OpacityMaskFilter_1_);">
			<polygon style="fill-rule:evenodd;clip-rule:evenodd;fill:#FFFFFF;" points="8.9,115.5 883.6,115.5 883.6,0.4 8.9,0.4 			"/>
		</g>
	</mask>
	<polygon id="Fill-35_1_" style="mask:url(#Fill-35_2_);fill-rule:evenodd;clip-rule:evenodd;fill:#FFFFFF;" points="496.4,112.2 
		494.5,112.2 487.3,102.7 486.2,101.1 486.2,101.1 486.2,112.2 484,112.2 484,97.7 485.9,97.7 493.3,107 494.2,108.7 494.2,108.7 
		494.2,97.7 496.4,97.7 	"/>
	<defs>
		<filter id="Adobe_OpacityMaskFilter_2_" filterUnits="userSpaceOnUse" x="505.6" y="97.5" width="12.6" height="14.7">
			<feColorMatrix  type="matrix" values="1 0 0 0 0  0 1 0 0 0  0 0 1 0 0  0 0 0 1 0"/>
		</filter>
	</defs>
	<mask maskUnits="userSpaceOnUse" x="505.6" y="97.5" width="12.6" height="14.7" id="mask-2_17_">
		<g style="filter:url(#Adobe_OpacityMaskFilter_2_);">
			<polygon id="path-1_17_" style="fill-rule:evenodd;clip-rule:evenodd;fill:#FFFFFF;" points="8.9,115.5 883.6,115.5 883.6,0.4 
				8.9,0.4 			"/>
		</g>
	</mask>
	<path id="Fill-36" style="mask:url(#mask-2_17_);fill-rule:evenodd;clip-rule:evenodd;fill:#FFFFFF;" d="M518.2,112.2h-3.1
		l-7.3-7.4l7.1-7.3h3.1l-7.3,7.1l0,0L518.2,112.2z M505.6,112.2h2.1V97.7h-2.1V112.2z"/>
	<defs>
		<filter id="Adobe_OpacityMaskFilter_3_" filterUnits="userSpaceOnUse" x="536.3" y="97.3" width="14.2" height="15">
			<feColorMatrix  type="matrix" values="1 0 0 0 0  0 1 0 0 0  0 0 1 0 0  0 0 0 1 0"/>
		</filter>
	</defs>
	<mask maskUnits="userSpaceOnUse" x="536.3" y="97.3" width="14.2" height="15" id="Fill-37_1_">
		<g style="filter:url(#Adobe_OpacityMaskFilter_3_);">
			<polygon style="fill-rule:evenodd;clip-rule:evenodd;fill:#FFFFFF;" points="8.9,115.5 883.6,115.5 883.6,0.4 8.9,0.4 			"/>
		</g>
	</mask>
	<path id="Fill-37" style="mask:url(#Fill-37_1_);fill-rule:evenodd;clip-rule:evenodd;fill:#FFFFFF;" d="M543.4,99.4
		c-3.5,0-4.8,2.4-4.8,5.5c0,3.1,1.4,5.4,4.8,5.4c3.5,0,4.8-2.4,4.8-5.4S546.8,99.4,543.4,99.4 M543.4,112.3c-4.7,0-7.1-2.9-7.1-7.4
		c0-4.3,2.4-7.6,7.1-7.6c4.7,0,7.1,3.1,7.1,7.6C550.5,109.4,547.9,112.3,543.4,112.3"/>
	<defs>
		<filter id="Adobe_OpacityMaskFilter_4_" filterUnits="userSpaceOnUse" x="558.8" y="97.5" width="12.8" height="14.9">
			<feColorMatrix  type="matrix" values="1 0 0 0 0  0 1 0 0 0  0 0 1 0 0  0 0 0 1 0"/>
		</filter>
	</defs>
	<mask maskUnits="userSpaceOnUse" x="558.8" y="97.5" width="12.8" height="14.9" id="mask-2_15_">
		<g style="filter:url(#Adobe_OpacityMaskFilter_4_);">
			<polygon id="path-1_15_" style="fill-rule:evenodd;clip-rule:evenodd;fill:#FFFFFF;" points="8.9,115.5 883.6,115.5 883.6,0.4 
				8.9,0.4 			"/>
		</g>
	</mask>
	<path id="Fill-38" style="mask:url(#mask-2_15_);fill-rule:evenodd;clip-rule:evenodd;fill:#FFFFFF;" d="M571.5,105.4
		c0,4.5-2.1,6.9-6.4,6.9c-4.3,0-6.4-2.4-6.4-6.9v-7.9h2.1v7.8c0,3.1,1,4.8,4.3,4.8c3.1,0,4.3-1.9,4.3-4.8v-7.8h2.1V105.4z"/>
	<defs>
		<filter id="Adobe_OpacityMaskFilter_5_" filterUnits="userSpaceOnUse" x="579.3" y="97.7" width="12.4" height="14.5">
			<feColorMatrix  type="matrix" values="1 0 0 0 0  0 1 0 0 0  0 0 1 0 0  0 0 0 1 0"/>
		</filter>
	</defs>
	<mask maskUnits="userSpaceOnUse" x="579.3" y="97.7" width="12.4" height="14.5" id="Fill-39_1_">
		<g style="filter:url(#Adobe_OpacityMaskFilter_5_);">
			<polygon style="fill-rule:evenodd;clip-rule:evenodd;fill:#FFFFFF;" points="8.9,115.5 883.6,115.5 883.6,0.4 8.9,0.4 			"/>
		</g>
	</mask>
	<polygon id="Fill-39" style="mask:url(#Fill-39_1_);fill-rule:evenodd;clip-rule:evenodd;fill:#FFFFFF;" points="591.7,99.6 
		586.6,99.6 586.6,99.7 586.6,112.2 584.5,112.2 584.5,99.7 584.7,99.6 579.3,99.6 579.3,97.7 591.7,97.7 	"/>
	<defs>
		<filter id="Adobe_OpacityMaskFilter_6_" filterUnits="userSpaceOnUse" x="598.8" y="97.7" width="12.2" height="14.7">
			<feColorMatrix  type="matrix" values="1 0 0 0 0  0 1 0 0 0  0 0 1 0 0  0 0 0 1 0"/>
		</filter>
	</defs>
	<mask maskUnits="userSpaceOnUse" x="598.8" y="97.7" width="12.2" height="14.7" id="mask-2_13_">
		<g style="filter:url(#Adobe_OpacityMaskFilter_6_);">
			<polygon id="path-1_13_" style="fill-rule:evenodd;clip-rule:evenodd;fill:#FFFFFF;" points="8.9,115.5 883.6,115.5 883.6,0.4 
				8.9,0.4 			"/>
		</g>
	</mask>
	<path id="Fill-40" style="mask:url(#mask-2_13_);fill-rule:evenodd;clip-rule:evenodd;fill:#FFFFFF;" d="M605.4,112.3
		c-2.4,0-4.8-0.7-6.6-2.4l1.6-1.6c1.7,1.6,3.1,2.1,4.8,2.1c2.8,0,3.8-1,3.8-2.1c0-0.9-0.7-1.7-2.6-2.1c-0.3-0.2-2.4-0.7-2.8-0.7
		c-2.6-0.7-4.7-1.7-4.7-4c0-2.1,1.9-4,5.9-4c2.4,0,4.3,0.9,5.9,2.4l-1.6,1.6c-1-1.2-2.4-1.9-4.3-1.9c-2.8,0-3.8,1-3.8,1.9
		c0,0.9,0.9,1.4,3.3,2.1c0.3,0,2.1,0.5,2.4,0.7c2.9,0.7,4.1,2.2,4.1,4C611.4,110.3,609.7,112.3,605.4,112.3"/>
	<defs>
		<filter id="Adobe_OpacityMaskFilter_7_" filterUnits="userSpaceOnUse" x="619.9" y="97.7" width="2.1" height="14.5">
			<feColorMatrix  type="matrix" values="1 0 0 0 0  0 1 0 0 0  0 0 1 0 0  0 0 0 1 0"/>
		</filter>
	</defs>
	<mask maskUnits="userSpaceOnUse" x="619.9" y="97.7" width="2.1" height="14.5" id="Fill-41_1_">
		<g style="filter:url(#Adobe_OpacityMaskFilter_7_);">
			<polygon style="fill-rule:evenodd;clip-rule:evenodd;fill:#FFFFFF;" points="8.9,115.5 883.6,115.5 883.6,0.4 8.9,0.4 			"/>
		</g>
	</mask>
	<polygon id="Fill-41" style="mask:url(#Fill-41_1_);fill-rule:evenodd;clip-rule:evenodd;fill:#FFFFFF;" points="619.9,112.2 
		622,112.2 622,97.7 619.9,97.7 	"/>
	<defs>
		<filter id="Adobe_OpacityMaskFilter_8_" filterUnits="userSpaceOnUse" x="631.1" y="97.7" width="12.6" height="14.5">
			<feColorMatrix  type="matrix" values="1 0 0 0 0  0 1 0 0 0  0 0 1 0 0  0 0 0 1 0"/>
		</filter>
	</defs>
	<mask maskUnits="userSpaceOnUse" x="631.1" y="97.7" width="12.6" height="14.5" id="mask-2_11_">
		<g style="filter:url(#Adobe_OpacityMaskFilter_8_);">
			<polygon id="path-1_11_" style="fill-rule:evenodd;clip-rule:evenodd;fill:#FFFFFF;" points="8.9,115.5 883.6,115.5 883.6,0.4 
				8.9,0.4 			"/>
		</g>
	</mask>
	<path id="Fill-42" style="mask:url(#mask-2_11_);fill-rule:evenodd;clip-rule:evenodd;fill:#FFFFFF;" d="M636.6,99.6H633l0.2,0.2
		v10.2l-0.2,0.2h3.6c4.1,0,4.8-2.4,4.8-5.4C641.6,102,641,99.6,636.6,99.6 M637,112.2h-5.9V97.7h5.7c5.9,0,6.9,3.8,6.9,7.3
		S642.9,112.2,637,112.2"/>
	<defs>
		<filter id="Adobe_OpacityMaskFilter_9_" filterUnits="userSpaceOnUse" x="652.2" y="97.7" width="11.2" height="14.5">
			<feColorMatrix  type="matrix" values="1 0 0 0 0  0 1 0 0 0  0 0 1 0 0  0 0 0 1 0"/>
		</filter>
	</defs>
	<mask maskUnits="userSpaceOnUse" x="652.2" y="97.7" width="11.2" height="14.5" id="Fill-43_1_">
		<g style="filter:url(#Adobe_OpacityMaskFilter_9_);">
			<polygon style="fill-rule:evenodd;clip-rule:evenodd;fill:#FFFFFF;" points="8.9,115.5 883.6,115.5 883.6,0.4 8.9,0.4 			"/>
		</g>
	</mask>
	<polygon id="Fill-43" style="mask:url(#Fill-43_1_);fill-rule:evenodd;clip-rule:evenodd;fill:#FFFFFF;" points="663.4,112.2 
		652.2,112.2 652.2,97.7 663.4,97.7 663.4,99.6 654.2,99.6 654.4,99.7 654.4,103.7 654.2,103.9 662.5,103.9 662.5,106 654.2,106 
		654.4,106.1 654.4,109.9 654.2,110.1 663.4,110.1 	"/>
	<defs>
		<filter id="Adobe_OpacityMaskFilter_10_" filterUnits="userSpaceOnUse" x="682.2" y="97.7" width="12.4" height="14.5">
			<feColorMatrix  type="matrix" values="1 0 0 0 0  0 1 0 0 0  0 0 1 0 0  0 0 0 1 0"/>
		</filter>
	</defs>
	<mask maskUnits="userSpaceOnUse" x="682.2" y="97.7" width="12.4" height="14.5" id="mask-2_9_">
		<g style="filter:url(#Adobe_OpacityMaskFilter_10_);">
			<polygon id="path-1_9_" style="fill-rule:evenodd;clip-rule:evenodd;fill:#FFFFFF;" points="8.9,115.5 883.6,115.5 883.6,0.4 
				8.9,0.4 			"/>
		</g>
	</mask>
	<polygon id="Fill-44" style="mask:url(#mask-2_9_);fill-rule:evenodd;clip-rule:evenodd;fill:#FFFFFF;" points="694.7,99.6 
		689.5,99.6 689.5,99.7 689.5,112.2 687.4,112.2 687.4,99.7 687.6,99.6 682.2,99.6 682.2,97.7 694.7,97.7 	"/>
	<defs>
		<filter id="Adobe_OpacityMaskFilter_11_" filterUnits="userSpaceOnUse" x="702.4" y="97.7" width="12.4" height="14.5">
			<feColorMatrix  type="matrix" values="1 0 0 0 0  0 1 0 0 0  0 0 1 0 0  0 0 0 1 0"/>
		</filter>
	</defs>
	<mask maskUnits="userSpaceOnUse" x="702.4" y="97.7" width="12.4" height="14.5" id="Fill-45_1_">
		<g style="filter:url(#Adobe_OpacityMaskFilter_11_);">
			<polygon style="fill-rule:evenodd;clip-rule:evenodd;fill:#FFFFFF;" points="8.9,115.5 883.6,115.5 883.6,0.4 8.9,0.4 			"/>
		</g>
	</mask>
	<polygon id="Fill-45" style="mask:url(#Fill-45_1_);fill-rule:evenodd;clip-rule:evenodd;fill:#FFFFFF;" points="714.9,112.2 
		712.8,112.2 712.8,106.1 713,106 704.3,106 704.7,106.1 704.7,112.2 702.4,112.2 702.4,97.7 704.7,97.7 704.7,103.7 704.3,103.9 
		713,103.9 712.8,103.7 712.8,97.7 714.9,97.7 	"/>
	<defs>
		<filter id="Adobe_OpacityMaskFilter_12_" filterUnits="userSpaceOnUse" x="724" y="97.7" width="11.1" height="14.5">
			<feColorMatrix  type="matrix" values="1 0 0 0 0  0 1 0 0 0  0 0 1 0 0  0 0 0 1 0"/>
		</filter>
	</defs>
	<mask maskUnits="userSpaceOnUse" x="724" y="97.7" width="11.1" height="14.5" id="mask-2_7_">
		<g style="filter:url(#Adobe_OpacityMaskFilter_12_);">
			<polygon id="path-1_7_" style="fill-rule:evenodd;clip-rule:evenodd;fill:#FFFFFF;" points="8.9,115.5 883.6,115.5 883.6,0.4 
				8.9,0.4 			"/>
		</g>
	</mask>
	<polygon id="Fill-46" style="mask:url(#mask-2_7_);fill-rule:evenodd;clip-rule:evenodd;fill:#FFFFFF;" points="735.1,112.2 
		724,112.2 724,97.7 735.1,97.7 735.1,99.6 725.9,99.6 726.1,99.7 726.1,103.7 725.9,103.9 734.2,103.9 734.2,106 725.9,106 
		726.1,106.1 726.1,109.9 725.9,110.1 735.1,110.1 	"/>
	<defs>
		<filter id="Adobe_OpacityMaskFilter_13_" filterUnits="userSpaceOnUse" x="755.1" y="97.7" width="12.1" height="14.5">
			<feColorMatrix  type="matrix" values="1 0 0 0 0  0 1 0 0 0  0 0 1 0 0  0 0 0 1 0"/>
		</filter>
	</defs>
	<mask maskUnits="userSpaceOnUse" x="755.1" y="97.7" width="12.1" height="14.5" id="Fill-47_1_">
		<g style="filter:url(#Adobe_OpacityMaskFilter_13_);">
			<polygon style="fill-rule:evenodd;clip-rule:evenodd;fill:#FFFFFF;" points="8.9,115.5 883.6,115.5 883.6,0.4 8.9,0.4 			"/>
		</g>
	</mask>
	<path id="Fill-47" style="mask:url(#Fill-47_1_);fill-rule:evenodd;clip-rule:evenodd;fill:#FFFFFF;" d="M762.2,105.6H757l0.2,0.2
		v4l-0.2,0.2h5.2c2.1,0,2.9-0.9,2.9-2.2C765.1,106.5,764.2,105.6,762.2,105.6 M762,99.6h-4.8l0.2,0.2v3.6l-0.2,0.2h4.8
		c1.9,0,2.6-0.9,2.6-2.1C764.6,100.3,763.7,99.6,762,99.6 M762.2,112.2h-7.1V97.7h6.9c3.1,0,4.7,1.9,4.7,4c0,1.2-0.5,2.2-1.6,2.9
		l0,0c1.4,0.5,2.1,1.7,2.1,3.5C767.4,110.6,765.6,112.2,762.2,112.2"/>
	<defs>
		<filter id="Adobe_OpacityMaskFilter_14_" filterUnits="userSpaceOnUse" x="775.6" y="97.8" width="13" height="14.5">
			<feColorMatrix  type="matrix" values="1 0 0 0 0  0 1 0 0 0  0 0 1 0 0  0 0 0 1 0"/>
		</filter>
	</defs>
	<mask maskUnits="userSpaceOnUse" x="775.6" y="97.8" width="13" height="14.5" id="mask-2_5_">
		<g style="filter:url(#Adobe_OpacityMaskFilter_14_);">
			<polygon id="path-1_5_" style="fill-rule:evenodd;clip-rule:evenodd;fill:#FFFFFF;" points="8.9,115.5 883.6,115.5 883.6,0.4 
				8.9,0.4 			"/>
		</g>
	</mask>
	<path id="Fill-48" style="mask:url(#mask-2_5_);fill-rule:evenodd;clip-rule:evenodd;fill:#FFFFFF;" d="M782.2,99.6h-4.7l0.2,0.2
		v4.3l-0.2,0.2h4.5c2.1,0,3.1-1,3.1-2.4C785.1,100.3,783.9,99.6,782.2,99.6z M788.6,112.2h-2.4l-1.9-3.8c-0.7-1.4-1.7-1.9-3.5-1.9
		h-3.3l0.2,0.2v5.7h-2.1V97.8h6.6c2.8,0,5.2,1.4,5.2,4.3c0,1.7-1.2,3.1-2.8,3.6l0,0c0.5,0.2,1.2,0.9,1.7,1.7L788.6,112.2z"/>
	<defs>
		<filter id="Adobe_OpacityMaskFilter_15_" filterUnits="userSpaceOnUse" x="794.8" y="97.7" width="15.4" height="14.5">
			<feColorMatrix  type="matrix" values="1 0 0 0 0  0 1 0 0 0  0 0 1 0 0  0 0 0 1 0"/>
		</filter>
	</defs>
	<mask maskUnits="userSpaceOnUse" x="794.8" y="97.7" width="15.4" height="14.5" id="Fill-49_1_">
		<g style="filter:url(#Adobe_OpacityMaskFilter_15_);">
			<polygon style="fill-rule:evenodd;clip-rule:evenodd;fill:#FFFFFF;" points="8.9,115.5 883.6,115.5 883.6,0.4 8.9,0.4 			"/>
		</g>
	</mask>
	<path id="Fill-49" style="mask:url(#Fill-49_1_);fill-rule:evenodd;clip-rule:evenodd;fill:#FFFFFF;" d="M805.3,106.6l-0.2-0.2
		l-2.2-5l-0.3-1.4l0,0l-0.3,1.4l-2.2,5l-0.2,0.2H805.3z M810.2,112.2h-2.4l-1.6-3.5l0.2-0.2h-7.8l0.2,0.2l-1.6,3.5h-2.4l6.6-14.5
		h2.1L810.2,112.2z"/>
	<defs>
		<filter id="Adobe_OpacityMaskFilter_16_" filterUnits="userSpaceOnUse" x="817.9" y="97.7" width="12.3" height="14.5">
			<feColorMatrix  type="matrix" values="1 0 0 0 0  0 1 0 0 0  0 0 1 0 0  0 0 0 1 0"/>
		</filter>
	</defs>
	<mask maskUnits="userSpaceOnUse" x="817.9" y="97.7" width="12.3" height="14.5" id="mask-2_3_">
		<g style="filter:url(#Adobe_OpacityMaskFilter_16_);">
			<polygon id="path-1_3_" style="fill-rule:evenodd;clip-rule:evenodd;fill:#FFFFFF;" points="8.9,115.5 883.6,115.5 883.6,0.4 
				8.9,0.4 			"/>
		</g>
	</mask>
	<polygon id="Fill-50" style="mask:url(#mask-2_3_);fill-rule:evenodd;clip-rule:evenodd;fill:#FFFFFF;" points="830.2,112.2 
		828.3,112.2 821.1,102.7 820,101.1 820,101.1 820,112.2 817.9,112.2 817.9,97.7 819.8,97.7 827.1,107 828.1,108.7 828.1,108.7 
		828.1,97.7 830.2,97.7 	"/>
	<defs>
		<filter id="Adobe_OpacityMaskFilter_17_" filterUnits="userSpaceOnUse" x="838.7" y="97.1" width="13.1" height="15">
			<feColorMatrix  type="matrix" values="1 0 0 0 0  0 1 0 0 0  0 0 1 0 0  0 0 0 1 0"/>
		</filter>
	</defs>
	<mask maskUnits="userSpaceOnUse" x="838.7" y="97.1" width="13.1" height="15" id="Fill-51_1_">
		<g style="filter:url(#Adobe_OpacityMaskFilter_17_);">
			<polygon style="fill-rule:evenodd;clip-rule:evenodd;fill:#FFFFFF;" points="8.9,115.5 883.6,115.5 883.6,0.4 8.9,0.4 			"/>
		</g>
	</mask>
	<path id="Fill-51" style="mask:url(#Fill-51_1_);fill-rule:evenodd;clip-rule:evenodd;fill:#FFFFFF;" d="M850.2,101.3
		c-0.9-1.2-2.1-1.9-4.1-1.9c-3.6,0-5.2,2.4-5.2,5.5c0,2.9,1.4,5.4,5.2,5.4c1.9,0,3.1-0.7,4.1-1.9l1.6,1.6c-1.4,1.6-3.3,2.2-5.7,2.2
		c-4.8,0-7.4-2.9-7.4-7.4c0-4.3,2.6-7.6,7.4-7.6c2.4,0,4.3,0.9,5.7,2.2L850.2,101.3z"/>
	<defs>
		<filter id="Adobe_OpacityMaskFilter_18_" filterUnits="userSpaceOnUse" x="859.7" y="97.7" width="12.4" height="14.5">
			<feColorMatrix  type="matrix" values="1 0 0 0 0  0 1 0 0 0  0 0 1 0 0  0 0 0 1 0"/>
		</filter>
	</defs>
	<mask maskUnits="userSpaceOnUse" x="859.7" y="97.7" width="12.4" height="14.5" id="mask-2_1_">
		<g style="filter:url(#Adobe_OpacityMaskFilter_18_);">
			<polygon id="path-1_1_" style="fill-rule:evenodd;clip-rule:evenodd;fill:#FFFFFF;" points="8.9,115.5 883.6,115.5 883.6,0.4 
				8.9,0.4 			"/>
		</g>
	</mask>
	<polygon id="Fill-52" style="mask:url(#mask-2_1_);fill-rule:evenodd;clip-rule:evenodd;fill:#FFFFFF;" points="872.2,112.2 
		869.9,112.2 869.9,106.1 870.3,106 861.6,106 862,106.1 862,112.2 859.7,112.2 859.7,97.7 862,97.7 862,103.7 861.6,103.9 
		870.3,103.9 869.9,103.7 869.9,97.7 872.2,97.7 	"/>
	<defs>
		<filter id="Adobe_OpacityMaskFilter_19_" filterUnits="userSpaceOnUse" x="877.5" y="97.7" width="5.9" height="5.9">
			<feColorMatrix  type="matrix" values="1 0 0 0 0  0 1 0 0 0  0 0 1 0 0  0 0 0 1 0"/>
		</filter>
	</defs>
	<mask maskUnits="userSpaceOnUse" x="877.5" y="97.7" width="5.9" height="5.9" id="Fill-53_1_">
		<g style="filter:url(#Adobe_OpacityMaskFilter_19_);">
			<polygon style="fill-rule:evenodd;clip-rule:evenodd;fill:#FFFFFF;" points="8.9,115.5 883.6,115.5 883.6,0.4 8.9,0.4 			"/>
		</g>
	</mask>
	<path id="Fill-53" style="mask:url(#Fill-53_1_);fill-rule:evenodd;clip-rule:evenodd;fill:#FFFFFF;" d="M880.6,99.6h-1l0,0v0.7
		l0,0h0.9c0.3,0,0.5-0.2,0.5-0.5C881.1,99.6,881,99.6,880.6,99.6z M882.2,102.3h-0.7l-0.3-0.9c-0.2-0.3-0.3-0.3-0.7-0.3h-0.7l0,0
		v1.2h-0.7v-3.5h1.6c0.7,0,1.2,0.3,1.2,1c0,0.3-0.2,0.7-0.5,0.9c0.2,0,0.2,0.2,0.3,0.3L882.2,102.3z M880.5,98.2
		c-1.4,0-2.4,1.2-2.4,2.4c0,1.4,1,2.4,2.4,2.4s2.4-1.2,2.4-2.4C882.9,99.2,881.8,98.2,880.5,98.2z M880.5,103.5
		c-1.7,0-2.9-1.4-2.9-2.9c0-1.7,1.4-2.9,2.9-2.9c1.7,0,2.9,1.4,2.9,2.9C883.6,102.3,882.2,103.5,880.5,103.5z"/>
</g>
</svg>
