<?xml version="1.0" encoding="utf-8"?>
<!-- Generator: Adobe Illustrator 16.0.3, SVG Export Plug-In . SVG Version: 6.00 Build 0)  -->
<!DOCTYPE svg PUBLIC "-//W3C//DTD SVG 1.1//EN" "http://www.w3.org/Graphics/SVG/1.1/DTD/svg11.dtd">
<svg version="1.1" xmlns="http://www.w3.org/2000/svg" xmlns:xlink="http://www.w3.org/1999/xlink" x="0px" y="0px" width="576px"
	 height="792px" viewBox="0 0 576 792" enable-background="new 0 0 576 792" xml:space="preserve">
<g id="Layer_1">
	<title>227E5C7A-CFAC-4ED6-B40B-79D19642CDB5</title>
	<desc>Created with sketchtool.</desc>
	<polygon id="Fill-1" fill="#63666A" points="106.793,389.979 96,389.979 96.114,390.206 96.114,417.018 93.614,417.018 
		93.614,390.206 93.728,389.979 82.935,389.979 82.935,387.479 106.793,387.479 	"/>
	<polygon id="Fill-2" fill="#63666A" points="132.923,417.018 130.424,417.018 130.424,403.726 130.651,403.498 112.473,403.498 
		112.701,403.726 112.701,417.018 110.201,417.018 110.201,387.479 112.701,387.479 112.701,400.771 112.473,400.999 
		130.651,400.999 130.424,400.771 130.424,387.479 132.923,387.479 	"/>
	<polygon id="Fill-3" fill="#63666A" points="160.189,417.018 139.74,417.018 139.74,387.479 160.189,387.479 160.189,389.979 
		142.012,389.979 142.239,390.206 142.239,400.771 142.012,400.999 158.485,400.999 158.485,403.498 142.012,403.498 
		142.239,403.726 142.239,414.291 142.012,414.519 160.189,414.519 	"/>
	<polygon id="Fill-4" fill="#63666A" points="198.816,416.677 192.568,416.677 192.568,399.862 192.568,399.862 191.205,402.93 
		183.025,417.018 182.798,417.018 174.618,402.93 173.254,399.977 173.254,399.977 173.254,416.677 167.006,416.677 
		167.006,387.479 172.118,387.479 181.548,403.612 182.911,406.68 182.911,406.68 184.161,403.612 193.704,387.479 198.816,387.479 
			"/>
	<path id="Fill-5" fill="#63666A" d="M218.471,392.137c-6.249,0-8.862,4.09-8.862,9.77c0,5.454,2.613,9.43,8.862,9.43
		c6.362,0,8.861-3.862,8.861-9.43C227.333,396.454,224.833,392.137,218.471,392.137 M218.471,416.791
		c-9.884,0-15.11-6.136-15.11-14.884c0-8.748,5.226-15.223,15.11-15.223c9.998,0,15.11,6.476,15.11,15.223
		C233.695,410.655,228.241,416.791,218.471,416.791"/>
	<path id="Fill-7" fill="#63666A" d="M253.008,392.592h-8.634l0.568,0.568v6.476l-0.568,0.567h8.293
		c3.749,0,5.339-1.817,5.339-3.749C258.007,393.841,256.303,392.592,253.008,392.592z M267.437,416.449h-6.93l-4.09-7.725
		c-1.25-2.272-2.84-3.295-6.249-3.295h-5.908l0.568,0.568v10.565h-6.135v-29.539h14.201c5.908,0,11.248,2.954,11.248,9.203
		c0,3.181-2.386,5.907-4.999,7.157v0.113c1.022,0.455,2.159,1.478,2.954,3.067L267.437,416.449z"/>
	<polygon id="Fill-9" fill="#63666A" points="294.93,392.592 284.478,392.592 284.819,393.16 284.819,416.449 278.57,416.449 
		278.57,393.16 278.911,392.592 268.346,392.592 268.346,387.025 294.93,387.025 	"/>
	<path id="Fill-11" fill="#63666A" d="M327.309,416.449h-5.34v-2.84c-1.704,1.817-5.226,3.067-8.634,3.067
		c-9.997,0-15.679-5.794-15.679-14.883c0-9.202,5.908-15.337,15.906-15.337c4.771,0,9.202,1.363,12.156,4.544l-4.204,4.317
		c-2.045-2.386-4.771-3.295-7.952-3.295c-6.59,0-9.657,3.636-9.657,9.884c0,5.908,2.954,9.316,9.43,9.316
		c4.544,0,7.726-2.613,8.066-6.248l0.567-0.568h-10.225v-5.453h15.451v17.495H327.309z"/>
	<path id="Fill-13" fill="#63666A" d="M352.644,404.294l-0.567-0.568l-3.068-6.362l-0.908-2.727h-0.114l-0.908,2.613l-3.067,6.361
		l-0.568,0.568h9.202V404.294z M364.914,416.449h-6.817l-3.067-6.476l0.341-0.567h-14.769l0.341,0.567l-3.067,6.476h-6.817
		l14.201-29.424h5.453L364.914,416.449z"/>
	<path id="Fill-15" fill="#63666A" d="M396.043,416.449h-5.34v-2.84c-1.704,1.817-5.227,3.067-8.635,3.067
		c-9.997,0-15.678-5.794-15.678-14.883c0-9.202,5.907-15.337,15.905-15.337c4.771,0,9.202,1.363,12.156,4.544l-4.204,4.317
		c-2.045-2.386-4.771-3.295-7.952-3.295c-6.59,0-9.657,3.636-9.657,9.884c0,5.908,2.954,9.316,9.43,9.316
		c4.545,0,7.726-2.613,8.066-6.248l0.682-0.455h-10.225v-5.453h15.451V416.449z"/>
	<polygon id="Fill-17" fill="#63666A" points="426.944,416.449 402.519,416.449 402.519,387.025 426.944,387.025 426.944,392.592 
		408.199,392.592 408.767,393.16 408.767,398.386 408.199,398.954 425.127,398.954 425.127,404.521 408.199,404.521 
		408.767,405.089 408.767,410.314 408.199,410.883 426.944,410.883 	"/>
	<path id="Fill-19" fill="#63666A" d="M457.505,416.449h-2.045v-5.339h-0.113c-1.817,3.749-5.907,5.794-9.997,5.794
		c-8.862,0-13.861-5.681-13.861-14.77c0-9.43,5.113-15.337,14.088-15.337c3.977,0,8.066,1.136,10.68,4.09l-1.932,1.931
		c-2.158-2.613-5.566-3.522-8.748-3.522c-7.726,0-11.475,5.113-11.475,12.951c0,7.612,3.522,12.384,11.247,12.384
		c5.908,0,10.226-4.544,9.998-11.247l0.228-0.228h-9.885v-2.386h11.815V416.449L457.505,416.449z"/>
	<path id="Fill-21" fill="#63666A" d="M476.479,389.411h-10.111l0.227,0.341v11.474l-0.227,0.228h9.771
		c4.431,0,7.157-2.386,7.157-5.908C483.295,391.115,480.228,389.411,476.479,389.411z M488.18,416.449h-2.954l-3.635-7.725
		c-1.591-3.295-3.863-4.886-7.953-4.886h-7.385l0.228,0.341v12.27h-2.499v-29.424h12.383c5.227,0,9.43,2.84,9.43,8.521
		c0,3.75-2.158,6.589-6.248,7.726v0.113c2.045,0.795,3.294,2.272,4.203,4.317L488.18,416.449z"/>
	<path id="Fill-23" fill="#63666A" d="M503.744,389.07c-7.726,0-10.679,5.908-10.679,12.837c0,6.817,3.067,12.497,10.679,12.497
		c7.726,0,10.68-5.68,10.68-12.497C514.424,395.205,511.47,389.07,503.744,389.07 M503.744,416.791
		c-8.748,0-13.292-5.908-13.292-14.884c0-8.975,4.658-15.223,13.292-15.223c8.748,0,13.293,6.249,13.293,15.223
		C517.037,410.883,512.379,416.791,503.744,416.791"/>
	<path id="Fill-25" fill="#63666A" d="M546.234,403.044c0,9.089-3.863,13.86-12.043,13.86s-12.042-4.658-12.042-13.86v-16.019h2.499
		v15.905c0,6.817,2.5,11.361,9.543,11.361c6.931,0,9.543-4.544,9.543-11.361v-15.905h2.5V403.044z"/>
	<path id="Fill-27" fill="#63666A" d="M565.548,389.411h-10.679l0.227,0.227v12.384l-0.227,0.227h10.679
		c4.431,0,6.59-2.727,6.59-6.475C572.138,392.023,569.979,389.411,565.548,389.411 M565.548,404.861h-10.679l0.227,0.341v11.361
		h-2.499v-29.539h13.064c6.021,0,9.203,3.749,9.203,8.861C574.864,400.885,571.569,404.861,565.548,404.861"/>
	<polygon id="Fill-29" fill="#63666A" points="286.637,423.607 283.229,423.607 283.342,423.721 283.342,431.9 281.865,431.9 
		281.865,423.721 281.979,423.607 278.57,423.607 278.57,422.357 286.637,422.357 	"/>
	<polygon id="Fill-31" fill="#63666A" points="299.134,431.9 297.656,431.9 297.656,427.924 297.771,427.811 292.203,427.811 
		292.317,427.924 292.317,431.9 290.954,431.9 290.954,422.357 292.317,422.357 292.317,426.334 292.203,426.447 297.771,426.447 
		297.656,426.334 297.656,422.357 299.134,422.357 	"/>
	<g id="Clip-34">
	</g>
	<defs>
		<filter id="Adobe_OpacityMaskFilter" filterUnits="userSpaceOnUse" x="305.155" y="422.357" width="1.363" height="9.543">
			<feColorMatrix  type="matrix" values="1 0 0 0 0  0 1 0 0 0  0 0 1 0 0  0 0 0 1 0"/>
		</filter>
	</defs>
	<mask maskUnits="userSpaceOnUse" x="305.155" y="422.357" width="1.363" height="9.543" id="mask-2_1_">
		<g filter="url(#Adobe_OpacityMaskFilter)">
			<polygon id="path-1_1_" fill="#FFFFFF" points="0,434.06 575.432,434.06 575.432,358.396 0,358.396 			"/>
		</g>
	</mask>
	<polygon id="Fill-33" mask="url(#mask-2_1_)" fill="#63666A" points="305.155,431.9 306.519,431.9 306.519,422.357 
		305.155,422.357 	"/>
	<defs>
		<filter id="Adobe_OpacityMaskFilter_1_" filterUnits="userSpaceOnUse" x="312.54" y="422.357" width="8.18" height="9.543">
			<feColorMatrix  type="matrix" values="1 0 0 0 0  0 1 0 0 0  0 0 1 0 0  0 0 0 1 0"/>
		</filter>
	</defs>
	<mask maskUnits="userSpaceOnUse" x="312.54" y="422.357" width="8.18" height="9.543" id="mask-2_2_">
		<g filter="url(#Adobe_OpacityMaskFilter_1_)">
			<polygon id="path-1_2_" fill="#FFFFFF" points="0,434.06 575.432,434.06 575.432,358.396 0,358.396 			"/>
		</g>
	</mask>
	<polygon id="Fill-35" mask="url(#mask-2_2_)" fill="#63666A" points="320.72,431.9 319.47,431.9 314.698,425.652 314.017,424.63 
		314.017,424.63 314.017,431.9 312.54,431.9 312.54,422.357 313.789,422.357 318.675,428.492 319.242,429.629 319.242,429.629 
		319.242,422.357 320.72,422.357 	"/>
	<defs>
		<filter id="Adobe_OpacityMaskFilter_2_" filterUnits="userSpaceOnUse" x="326.741" y="422.244" width="8.293" height="9.656">
			<feColorMatrix  type="matrix" values="1 0 0 0 0  0 1 0 0 0  0 0 1 0 0  0 0 0 1 0"/>
		</filter>
	</defs>
	<mask maskUnits="userSpaceOnUse" x="326.741" y="422.244" width="8.293" height="9.656" id="mask-2_3_">
		<g filter="url(#Adobe_OpacityMaskFilter_2_)">
			<polygon id="path-1_3_" fill="#FFFFFF" points="0,434.06 575.432,434.06 575.432,358.396 0,358.396 			"/>
		</g>
	</mask>
	<path id="Fill-36" mask="url(#mask-2_3_)" fill="#63666A" d="M335.034,431.9h-2.045l-4.771-4.885l4.658-4.771h2.045l-4.771,4.657
		l0,0L335.034,431.9z M326.741,431.9h1.363v-9.543h-1.363V431.9z"/>
	<defs>
		<filter id="Adobe_OpacityMaskFilter_3_" filterUnits="userSpaceOnUse" x="346.963" y="422.13" width="9.316" height="9.885">
			<feColorMatrix  type="matrix" values="1 0 0 0 0  0 1 0 0 0  0 0 1 0 0  0 0 0 1 0"/>
		</filter>
	</defs>
	<mask maskUnits="userSpaceOnUse" x="346.963" y="422.13" width="9.316" height="9.885" id="mask-2_4_">
		<g filter="url(#Adobe_OpacityMaskFilter_3_)">
			<polygon id="path-1_4_" fill="#FFFFFF" points="0,434.06 575.432,434.06 575.432,358.396 0,358.396 			"/>
		</g>
	</mask>
	<path id="Fill-37" mask="url(#mask-2_4_)" fill="#63666A" d="M351.621,423.493c-2.271,0-3.181,1.591-3.181,3.636
		s0.909,3.521,3.181,3.521c2.272,0,3.182-1.59,3.182-3.521S353.894,423.493,351.621,423.493 M351.621,432.015
		c-3.067,0-4.658-1.932-4.658-4.886c0-2.84,1.591-4.999,4.658-4.999s4.658,2.045,4.658,4.999S354.575,432.015,351.621,432.015"/>
	<defs>
		<filter id="Adobe_OpacityMaskFilter_4_" filterUnits="userSpaceOnUse" x="361.732" y="422.244" width="8.407" height="9.771">
			<feColorMatrix  type="matrix" values="1 0 0 0 0  0 1 0 0 0  0 0 1 0 0  0 0 0 1 0"/>
		</filter>
	</defs>
	<mask maskUnits="userSpaceOnUse" x="361.732" y="422.244" width="8.407" height="9.771" id="mask-2_5_">
		<g filter="url(#Adobe_OpacityMaskFilter_4_)">
			<polygon id="path-1_5_" fill="#FFFFFF" points="0,434.06 575.432,434.06 575.432,358.396 0,358.396 			"/>
		</g>
	</mask>
	<path id="Fill-38" mask="url(#mask-2_5_)" fill="#63666A" d="M370.14,427.47c0,2.954-1.363,4.545-4.203,4.545
		c-2.841,0-4.204-1.591-4.204-4.545v-5.226h1.363v5.112c0,2.045,0.682,3.181,2.841,3.181c2.045,0,2.84-1.25,2.84-3.181v-5.112h1.363
		V427.47z"/>
	<defs>
		<filter id="Adobe_OpacityMaskFilter_5_" filterUnits="userSpaceOnUse" x="375.252" y="422.357" width="8.18" height="9.543">
			<feColorMatrix  type="matrix" values="1 0 0 0 0  0 1 0 0 0  0 0 1 0 0  0 0 0 1 0"/>
		</filter>
	</defs>
	<mask maskUnits="userSpaceOnUse" x="375.252" y="422.357" width="8.18" height="9.543" id="mask-2_6_">
		<g filter="url(#Adobe_OpacityMaskFilter_5_)">
			<polygon id="path-1_6_" fill="#FFFFFF" points="0,434.06 575.432,434.06 575.432,358.396 0,358.396 			"/>
		</g>
	</mask>
	<polygon id="Fill-39" mask="url(#mask-2_6_)" fill="#63666A" points="383.432,423.607 380.023,423.607 380.023,423.721 
		380.023,431.9 378.66,431.9 378.66,423.721 378.774,423.607 375.252,423.607 375.252,422.357 383.432,422.357 	"/>
	<defs>
		<filter id="Adobe_OpacityMaskFilter_6_" filterUnits="userSpaceOnUse" x="388.09" y="422.357" width="8.012" height="9.657">
			<feColorMatrix  type="matrix" values="1 0 0 0 0  0 1 0 0 0  0 0 1 0 0  0 0 0 1 0"/>
		</filter>
	</defs>
	<mask maskUnits="userSpaceOnUse" x="388.09" y="422.357" width="8.012" height="9.657" id="mask-2_7_">
		<g filter="url(#Adobe_OpacityMaskFilter_6_)">
			<polygon id="path-1_7_" fill="#FFFFFF" points="0,434.06 575.432,434.06 575.432,358.396 0,358.396 			"/>
		</g>
	</mask>
	<path id="Fill-40" mask="url(#mask-2_7_)" fill="#63666A" d="M392.407,432.015c-1.591,0-3.182-0.455-4.317-1.591l1.022-1.022
		c1.136,1.022,2.045,1.363,3.182,1.363c1.817,0,2.499-0.682,2.499-1.363c0-0.568-0.454-1.137-1.704-1.363
		c-0.228-0.114-1.591-0.455-1.817-0.455c-1.705-0.454-3.068-1.136-3.068-2.612c0-1.363,1.25-2.613,3.863-2.613
		c1.591,0,2.84,0.568,3.862,1.591l-1.022,1.022c-0.682-0.796-1.59-1.25-2.84-1.25c-1.818,0-2.5,0.682-2.5,1.25
		c0,0.567,0.568,0.908,2.159,1.363c0.228,0,1.363,0.341,1.591,0.454c1.931,0.454,2.727,1.477,2.727,2.613
		C396.384,430.65,395.247,432.015,392.407,432.015"/>
	<defs>
		<filter id="Adobe_OpacityMaskFilter_7_" filterUnits="userSpaceOnUse" x="401.95" y="422.357" width="1.363" height="9.543">
			<feColorMatrix  type="matrix" values="1 0 0 0 0  0 1 0 0 0  0 0 1 0 0  0 0 0 1 0"/>
		</filter>
	</defs>
	<mask maskUnits="userSpaceOnUse" x="401.95" y="422.357" width="1.363" height="9.543" id="mask-2_8_">
		<g filter="url(#Adobe_OpacityMaskFilter_7_)">
			<polygon id="path-1_8_" fill="#FFFFFF" points="0,434.06 575.432,434.06 575.432,358.396 0,358.396 			"/>
		</g>
	</mask>
	<polygon id="Fill-41" mask="url(#mask-2_8_)" fill="#63666A" points="401.95,431.9 403.313,431.9 403.313,422.357 401.95,422.357 	
		"/>
	<defs>
		<filter id="Adobe_OpacityMaskFilter_8_" filterUnits="userSpaceOnUse" x="409.335" y="422.357" width="8.294" height="9.543">
			<feColorMatrix  type="matrix" values="1 0 0 0 0  0 1 0 0 0  0 0 1 0 0  0 0 0 1 0"/>
		</filter>
	</defs>
	<mask maskUnits="userSpaceOnUse" x="409.335" y="422.357" width="8.294" height="9.543" id="mask-2_9_">
		<g filter="url(#Adobe_OpacityMaskFilter_8_)">
			<polygon id="path-1_9_" fill="#FFFFFF" points="0,434.06 575.432,434.06 575.432,358.396 0,358.396 			"/>
		</g>
	</mask>
	<path id="Fill-42" mask="url(#mask-2_9_)" fill="#63666A" d="M412.971,423.607h-2.386l0.113,0.113v6.703l-0.113,0.113h2.386
		c2.727,0,3.181-1.591,3.181-3.521C416.265,425.197,415.811,423.607,412.971,423.607 M413.197,431.9h-3.862v-9.543h3.749
		c3.862,0,4.545,2.499,4.545,4.771S417.061,431.9,413.197,431.9"/>
	<defs>
		<filter id="Adobe_OpacityMaskFilter_9_" filterUnits="userSpaceOnUse" x="423.195" y="422.357" width="7.385" height="9.543">
			<feColorMatrix  type="matrix" values="1 0 0 0 0  0 1 0 0 0  0 0 1 0 0  0 0 0 1 0"/>
		</filter>
	</defs>
	<mask maskUnits="userSpaceOnUse" x="423.195" y="422.357" width="7.385" height="9.543" id="mask-2_10_">
		<g filter="url(#Adobe_OpacityMaskFilter_9_)">
			<polygon id="path-1_10_" fill="#FFFFFF" points="0,434.06 575.432,434.06 575.432,358.396 0,358.396 			"/>
		</g>
	</mask>
	<polygon id="Fill-43" mask="url(#mask-2_10_)" fill="#63666A" points="430.58,431.9 423.195,431.9 423.195,422.357 430.58,422.357 
		430.58,423.607 424.559,423.607 424.672,423.721 424.672,426.334 424.559,426.447 430.012,426.447 430.012,427.811 
		424.559,427.811 424.672,427.924 424.672,430.424 424.559,430.537 430.58,430.537 	"/>
	<defs>
		<filter id="Adobe_OpacityMaskFilter_10_" filterUnits="userSpaceOnUse" x="442.963" y="422.357" width="8.181" height="9.543">
			<feColorMatrix  type="matrix" values="1 0 0 0 0  0 1 0 0 0  0 0 1 0 0  0 0 0 1 0"/>
		</filter>
	</defs>
	<mask maskUnits="userSpaceOnUse" x="442.963" y="422.357" width="8.181" height="9.543" id="mask-2_11_">
		<g filter="url(#Adobe_OpacityMaskFilter_10_)">
			<polygon id="path-1_11_" fill="#FFFFFF" points="0,434.06 575.432,434.06 575.432,358.396 0,358.396 			"/>
		</g>
	</mask>
	<polygon id="Fill-44" mask="url(#mask-2_11_)" fill="#63666A" points="451.144,423.607 447.735,423.607 447.735,423.721 
		447.735,431.9 446.371,431.9 446.371,423.721 446.485,423.607 442.963,423.607 442.963,422.357 451.144,422.357 	"/>
	<defs>
		<filter id="Adobe_OpacityMaskFilter_11_" filterUnits="userSpaceOnUse" x="456.256" y="422.357" width="8.18" height="9.543">
			<feColorMatrix  type="matrix" values="1 0 0 0 0  0 1 0 0 0  0 0 1 0 0  0 0 0 1 0"/>
		</filter>
	</defs>
	<mask maskUnits="userSpaceOnUse" x="456.256" y="422.357" width="8.18" height="9.543" id="mask-2_12_">
		<g filter="url(#Adobe_OpacityMaskFilter_11_)">
			<polygon id="path-1_12_" fill="#FFFFFF" points="0,434.06 575.432,434.06 575.432,358.396 0,358.396 			"/>
		</g>
	</mask>
	<polygon id="Fill-45" mask="url(#mask-2_12_)" fill="#63666A" points="464.436,431.9 463.072,431.9 463.072,427.924 
		463.186,427.811 457.505,427.811 457.732,427.924 457.732,431.9 456.256,431.9 456.256,422.357 457.732,422.357 457.732,426.334 
		457.505,426.447 463.186,426.447 463.072,426.334 463.072,422.357 464.436,422.357 	"/>
	<defs>
		<filter id="Adobe_OpacityMaskFilter_12_" filterUnits="userSpaceOnUse" x="470.457" y="422.357" width="7.271" height="9.543">
			<feColorMatrix  type="matrix" values="1 0 0 0 0  0 1 0 0 0  0 0 1 0 0  0 0 0 1 0"/>
		</filter>
	</defs>
	<mask maskUnits="userSpaceOnUse" x="470.457" y="422.357" width="7.271" height="9.543" id="mask-2_13_">
		<g filter="url(#Adobe_OpacityMaskFilter_12_)">
			<polygon id="path-1_13_" fill="#FFFFFF" points="0,434.06 575.432,434.06 575.432,358.396 0,358.396 			"/>
		</g>
	</mask>
	<polygon id="Fill-46" mask="url(#mask-2_13_)" fill="#63666A" points="477.728,431.9 470.457,431.9 470.457,422.357 
		477.728,422.357 477.728,423.607 471.707,423.607 471.82,423.721 471.82,426.334 471.707,426.447 477.16,426.447 477.16,427.811 
		471.707,427.811 471.82,427.924 471.82,430.424 471.707,430.537 477.728,430.537 	"/>
	<defs>
		<filter id="Adobe_OpacityMaskFilter_13_" filterUnits="userSpaceOnUse" x="490.906" y="422.357" width="7.961" height="9.543">
			<feColorMatrix  type="matrix" values="1 0 0 0 0  0 1 0 0 0  0 0 1 0 0  0 0 0 1 0"/>
		</filter>
	</defs>
	<mask maskUnits="userSpaceOnUse" x="490.906" y="422.357" width="7.961" height="9.543" id="mask-2_14_">
		<g filter="url(#Adobe_OpacityMaskFilter_13_)">
			<polygon id="path-1_14_" fill="#FFFFFF" points="0,434.06 575.432,434.06 575.432,358.396 0,358.396 			"/>
		</g>
	</mask>
	<path id="Fill-47" mask="url(#mask-2_14_)" fill="#63666A" d="M495.564,427.583h-3.408l0.113,0.114v2.613l-0.113,0.113h3.408
		c1.363,0,1.932-0.568,1.932-1.478C497.496,428.151,496.928,427.583,495.564,427.583 M495.451,423.607h-3.182l0.114,0.113v2.386
		l-0.114,0.113h3.182c1.249,0,1.704-0.567,1.704-1.363C497.155,424.062,496.587,423.607,495.451,423.607 M495.564,431.9h-4.658
		v-9.543h4.545c2.045,0,3.067,1.25,3.067,2.613c0,0.795-0.341,1.477-1.022,1.931l0,0c0.908,0.341,1.363,1.137,1.363,2.272
		C498.973,430.878,497.837,431.9,495.564,431.9"/>
	<defs>
		<filter id="Adobe_OpacityMaskFilter_14_" filterUnits="userSpaceOnUse" x="504.426" y="422.471" width="8.521" height="9.544">
			<feColorMatrix  type="matrix" values="1 0 0 0 0  0 1 0 0 0  0 0 1 0 0  0 0 0 1 0"/>
		</filter>
	</defs>
	<mask maskUnits="userSpaceOnUse" x="504.426" y="422.471" width="8.521" height="9.544" id="mask-2_15_">
		<g filter="url(#Adobe_OpacityMaskFilter_14_)">
			<polygon id="path-1_15_" fill="#FFFFFF" points="0,434.06 575.432,434.06 575.432,358.396 0,358.396 			"/>
		</g>
	</mask>
	<path id="Fill-48" mask="url(#mask-2_15_)" fill="#63666A" d="M508.743,423.607h-3.067l0.113,0.113v2.84l-0.113,0.114h2.954
		c1.363,0,2.045-0.682,2.045-1.591C510.675,424.062,509.879,423.607,508.743,423.607z M512.947,431.9h-1.591l-1.25-2.499
		c-0.454-0.909-1.136-1.25-2.272-1.25h-2.158l0.113,0.113v3.75h-1.363v-9.544h4.317c1.817,0,3.408,0.909,3.408,2.841
		c0,1.136-0.795,2.045-1.817,2.386l0,0c0.341,0.113,0.795,0.567,1.136,1.136L512.947,431.9z"/>
	<defs>
		<filter id="Adobe_OpacityMaskFilter_15_" filterUnits="userSpaceOnUse" x="517.037" y="422.357" width="10.111" height="9.543">
			<feColorMatrix  type="matrix" values="1 0 0 0 0  0 1 0 0 0  0 0 1 0 0  0 0 0 1 0"/>
		</filter>
	</defs>
	<mask maskUnits="userSpaceOnUse" x="517.037" y="422.357" width="10.111" height="9.543" id="mask-2_16_">
		<g filter="url(#Adobe_OpacityMaskFilter_15_)">
			<polygon id="path-1_16_" fill="#FFFFFF" points="0,434.06 575.432,434.06 575.432,358.396 0,358.396 			"/>
		</g>
	</mask>
	<path id="Fill-49" mask="url(#mask-2_16_)" fill="#63666A" d="M523.967,428.265l-0.113-0.113l-1.478-3.295l-0.227-0.908l0,0
		l-0.228,0.908l-1.477,3.295l-0.114,0.113H523.967z M527.148,431.9h-1.591l-1.022-2.271l0.113-0.114h-5.112l0.113,0.114
		l-1.022,2.271h-1.59l4.316-9.543h1.363L527.148,431.9z"/>
	<defs>
		<filter id="Adobe_OpacityMaskFilter_16_" filterUnits="userSpaceOnUse" x="532.261" y="422.357" width="8.065" height="9.543">
			<feColorMatrix  type="matrix" values="1 0 0 0 0  0 1 0 0 0  0 0 1 0 0  0 0 0 1 0"/>
		</filter>
	</defs>
	<mask maskUnits="userSpaceOnUse" x="532.261" y="422.357" width="8.065" height="9.543" id="mask-2_17_">
		<g filter="url(#Adobe_OpacityMaskFilter_16_)">
			<polygon id="path-1_17_" fill="#FFFFFF" points="0,434.06 575.432,434.06 575.432,358.396 0,358.396 			"/>
		</g>
	</mask>
	<polygon id="Fill-50" mask="url(#mask-2_17_)" fill="#63666A" points="540.326,431.9 539.077,431.9 534.306,425.652 
		533.624,424.63 533.624,424.63 533.624,431.9 532.261,431.9 532.261,422.357 533.51,422.357 538.281,428.492 538.963,429.629 
		538.963,429.629 538.963,422.357 540.326,422.357 	"/>
	<defs>
		<filter id="Adobe_OpacityMaskFilter_17_" filterUnits="userSpaceOnUse" x="545.894" y="422.017" width="8.634" height="9.884">
			<feColorMatrix  type="matrix" values="1 0 0 0 0  0 1 0 0 0  0 0 1 0 0  0 0 0 1 0"/>
		</filter>
	</defs>
	<mask maskUnits="userSpaceOnUse" x="545.894" y="422.017" width="8.634" height="9.884" id="mask-2_18_">
		<g filter="url(#Adobe_OpacityMaskFilter_17_)">
			<polygon id="path-1_18_" fill="#FFFFFF" points="0,434.06 575.432,434.06 575.432,358.396 0,358.396 			"/>
		</g>
	</mask>
	<path id="Fill-51" mask="url(#mask-2_18_)" fill="#63666A" d="M553.506,424.743c-0.568-0.795-1.364-1.25-2.728-1.25
		c-2.386,0-3.408,1.591-3.408,3.636c0,1.932,0.909,3.521,3.408,3.521c1.25,0,2.045-0.454,2.728-1.249l1.021,1.022
		c-0.908,1.022-2.158,1.477-3.749,1.477c-3.181,0-4.885-1.932-4.885-4.885c0-2.841,1.704-4.999,4.885-4.999
		c1.591,0,2.841,0.568,3.749,1.477L553.506,424.743z"/>
	<defs>
		<filter id="Adobe_OpacityMaskFilter_18_" filterUnits="userSpaceOnUse" x="559.754" y="422.357" width="8.18" height="9.543">
			<feColorMatrix  type="matrix" values="1 0 0 0 0  0 1 0 0 0  0 0 1 0 0  0 0 0 1 0"/>
		</filter>
	</defs>
	<mask maskUnits="userSpaceOnUse" x="559.754" y="422.357" width="8.18" height="9.543" id="mask-2_19_">
		<g filter="url(#Adobe_OpacityMaskFilter_18_)">
			<polygon id="path-1_19_" fill="#FFFFFF" points="0,434.06 575.432,434.06 575.432,358.396 0,358.396 			"/>
		</g>
	</mask>
	<polygon id="Fill-52" mask="url(#mask-2_19_)" fill="#63666A" points="567.934,431.9 566.457,431.9 566.457,427.924 
		566.684,427.811 561.004,427.811 561.23,427.924 561.23,431.9 559.754,431.9 559.754,422.357 561.23,422.357 561.23,426.334 
		561.004,426.447 566.684,426.447 566.457,426.334 566.457,422.357 567.934,422.357 	"/>
	<defs>
		<filter id="Adobe_OpacityMaskFilter_19_" filterUnits="userSpaceOnUse" x="571.456" y="422.357" width="3.872" height="3.862">
			<feColorMatrix  type="matrix" values="1 0 0 0 0  0 1 0 0 0  0 0 1 0 0  0 0 0 1 0"/>
		</filter>
	</defs>
	<mask maskUnits="userSpaceOnUse" x="571.456" y="422.357" width="3.872" height="3.862" id="mask-2_20_">
		<g filter="url(#Adobe_OpacityMaskFilter_19_)">
			<polygon id="path-1_20_" fill="#FFFFFF" points="0,434.06 575.432,434.06 575.432,358.396 0,358.396 			"/>
		</g>
	</mask>
	<path id="Fill-53" mask="url(#mask-2_20_)" fill="#63666A" d="M573.501,423.607h-0.682l0,0v0.454l0,0h0.567
		c0.228,0,0.341-0.113,0.341-0.341C573.842,423.607,573.728,423.607,573.501,423.607z M574.523,425.425h-0.455l-0.227-0.568
		c-0.114-0.227-0.228-0.227-0.455-0.227h-0.454l0,0v0.795h-0.454v-2.272h1.022c0.454,0,0.795,0.228,0.795,0.682
		c0,0.228-0.113,0.455-0.341,0.568c0.113,0,0.113,0.113,0.228,0.228L574.523,425.425z M573.387,422.698
		c-0.908,0-1.59,0.795-1.59,1.591c0,0.908,0.682,1.59,1.59,1.59c0.909,0,1.591-0.795,1.591-1.59
		C574.978,423.38,574.296,422.698,573.387,422.698z M573.387,426.22c-1.136,0-1.931-0.908-1.931-1.931
		c0-1.137,0.908-1.932,1.931-1.932c1.137,0,1.932,0.909,1.932,1.932C575.432,425.425,574.523,426.22,573.387,426.22z"/>
	<defs>
		<filter id="Adobe_OpacityMaskFilter_20_" filterUnits="userSpaceOnUse" x="12.27" y="416.223" width="51.238" height="12.497">
			<feColorMatrix  type="matrix" values="1 0 0 0 0  0 1 0 0 0  0 0 1 0 0  0 0 0 1 0"/>
		</filter>
	</defs>
	<mask maskUnits="userSpaceOnUse" x="12.27" y="416.223" width="51.238" height="12.497" id="mask-2_21_">
		<g filter="url(#Adobe_OpacityMaskFilter_20_)">
			<polygon id="path-1_21_" fill="#FFFFFF" points="0,434.06 575.432,434.06 575.432,358.396 0,358.396 			"/>
		</g>
	</mask>
	<path id="Fill-54" mask="url(#mask-2_21_)" fill="#63666A" d="M37.832,428.72c10.452,0,19.654-4.886,25.676-12.497H12.27
		C18.178,423.834,27.494,428.72,37.832,428.72"/>
	<defs>
		<filter id="Adobe_OpacityMaskFilter_21_" filterUnits="userSpaceOnUse" x="5.34" y="363.735" width="65.211" height="50.443">
			<feColorMatrix  type="matrix" values="1 0 0 0 0  0 1 0 0 0  0 0 1 0 0  0 0 0 1 0"/>
		</filter>
	</defs>
	<mask maskUnits="userSpaceOnUse" x="5.34" y="363.735" width="65.211" height="50.443" id="mask-2_22_">
		<g filter="url(#Adobe_OpacityMaskFilter_21_)">
			<polygon id="path-1_22_" fill="#FFFFFF" points="0,434.06 575.432,434.06 575.432,358.396 0,358.396 			"/>
		</g>
	</mask>
	<path id="Fill-55" mask="url(#mask-2_22_)" fill="#63666A" d="M69.188,387.252H54.533l-6.589-6.589l-6.703,6.703h-2.954
		l9.657-9.657l7.498,7.498h13.065c-4.544-12.497-16.473-21.472-30.674-21.472s-26.13,8.975-30.675,21.472h13.52l17.382-17.382
		l7.612,7.612l-1.477,1.477l-6.135-6.135l-16.473,16.473H6.589c-0.795,2.84-1.25,5.794-1.25,8.976c0,6.589,2.045,12.838,5.453,17.95
		h54.305c3.408-5.112,5.453-11.361,5.453-17.95C70.438,393.16,69.983,390.092,69.188,387.252"/>
	<defs>
		<filter id="Adobe_OpacityMaskFilter_22_" filterUnits="userSpaceOnUse" x="0" y="358.396" width="75.665" height="75.664">
			<feColorMatrix  type="matrix" values="1 0 0 0 0  0 1 0 0 0  0 0 1 0 0  0 0 0 1 0"/>
		</filter>
	</defs>
	<mask maskUnits="userSpaceOnUse" x="0" y="358.396" width="75.665" height="75.664" id="mask-2_23_">
		<g filter="url(#Adobe_OpacityMaskFilter_22_)">
			<polygon id="path-1_23_" fill="#FFFFFF" points="0,434.06 575.432,434.06 575.432,358.396 0,358.396 			"/>
		</g>
	</mask>
	<path id="Fill-56" mask="url(#mask-2_23_)" fill="#63666A" d="M37.832,360.895C18.291,360.895,2.5,376.8,2.5,396.228
		c0,19.54,15.905,35.332,35.333,35.332c19.541,0,35.333-15.905,35.333-35.332C73.278,376.687,57.373,360.895,37.832,360.895
		 M37.832,434.06C17.042,434.06,0,417.131,0,396.228c0-20.904,17.042-37.832,37.832-37.832s37.832,16.928,37.832,37.832
		C75.777,417.131,58.736,434.06,37.832,434.06"/>
	<defs>
		<filter id="Adobe_OpacityMaskFilter_23_" filterUnits="userSpaceOnUse" x="8.407" y="392.364" width="15.792" height="16.701">
			<feColorMatrix  type="matrix" values="1 0 0 0 0  0 1 0 0 0  0 0 1 0 0  0 0 0 1 0"/>
		</filter>
	</defs>
	<mask maskUnits="userSpaceOnUse" x="8.407" y="392.364" width="15.792" height="16.701" id="mask-2_24_">
		<g filter="url(#Adobe_OpacityMaskFilter_23_)">
			<polygon id="path-1_24_" fill="#FFFFFF" points="0,434.06 575.432,434.06 575.432,358.396 0,358.396 			"/>
		</g>
	</mask>
	<polygon id="Fill-57" mask="url(#mask-2_24_)" fill="#FFFFFF" points="24.199,395.886 18.178,395.886 18.291,396.228 
		18.291,409.065 14.201,409.065 14.201,396.228 14.428,395.886 8.407,395.886 8.407,392.364 24.199,392.364 	"/>
	<defs>
		<filter id="Adobe_OpacityMaskFilter_24_" filterUnits="userSpaceOnUse" x="26.13" y="392.137" width="18.973" height="17.155">
			<feColorMatrix  type="matrix" values="1 0 0 0 0  0 1 0 0 0  0 0 1 0 0  0 0 0 1 0"/>
		</filter>
	</defs>
	<mask maskUnits="userSpaceOnUse" x="26.13" y="392.137" width="18.973" height="17.155" id="mask-2_25_">
		<g filter="url(#Adobe_OpacityMaskFilter_24_)">
			<polygon id="path-1_25_" fill="#FFFFFF" points="0,434.06 575.432,434.06 575.432,358.396 0,358.396 			"/>
		</g>
	</mask>
	<polygon id="Fill-58" mask="url(#mask-2_25_)" fill="#FFFFFF" points="45.103,409.065 40.899,409.065 40.899,400.09 40.899,400.09 
		40.104,401.907 35.56,409.292 35.56,409.292 31.129,401.907 30.22,400.09 30.22,400.09 30.22,409.065 26.13,409.065 26.13,392.137 
		29.539,392.137 34.878,401.112 35.56,402.59 35.56,402.59 36.241,401.112 41.695,392.137 45.103,392.137 	"/>
	<defs>
		<filter id="Adobe_OpacityMaskFilter_25_" filterUnits="userSpaceOnUse" x="47.034" y="392.023" width="17.609" height="17.383">
			<feColorMatrix  type="matrix" values="1 0 0 0 0  0 1 0 0 0  0 0 1 0 0  0 0 0 1 0"/>
		</filter>
	</defs>
	<mask maskUnits="userSpaceOnUse" x="47.034" y="392.023" width="17.609" height="17.383" id="mask-2_26_">
		<g filter="url(#Adobe_OpacityMaskFilter_25_)">
			<polygon id="path-1_26_" fill="#FFFFFF" points="0,434.06 575.432,434.06 575.432,358.396 0,358.396 			"/>
		</g>
	</mask>
	<path id="Fill-59" mask="url(#mask-2_26_)" fill="#FFFFFF" d="M64.53,409.179h-3.522v-1.25c-1.022,0.909-2.954,1.478-4.658,1.478
		c-5.908,0-9.316-3.408-9.316-8.521c0-5.226,3.522-8.861,9.43-8.861c3.067,0,5.567,1.022,7.044,2.613l-2.727,2.727
		c-1.022-1.25-2.5-1.818-4.317-1.818c-3.635,0-5.226,1.931-5.226,5.226c0,3.182,1.591,4.999,5.112,4.999
		c2.386,0,4.09-1.136,4.431-2.954l0.341-0.341h-5.908v-3.521h9.429v10.225H64.53z"/>
	<defs>
		<filter id="Adobe_OpacityMaskFilter_26_" filterUnits="userSpaceOnUse" x="12.27" y="416.223" width="51.238" height="12.497">
			<feColorMatrix  type="matrix" values="1 0 0 0 0  0 1 0 0 0  0 0 1 0 0  0 0 0 1 0"/>
		</filter>
	</defs>
	<mask maskUnits="userSpaceOnUse" x="12.27" y="416.223" width="51.238" height="12.497" id="mask-2_27_">
		<g filter="url(#Adobe_OpacityMaskFilter_26_)">
			<polygon id="path-1_27_" fill="#FFFFFF" points="0,434.06 575.432,434.06 575.432,358.396 0,358.396 			"/>
		</g>
	</mask>
	<path id="Fill-60" mask="url(#mask-2_27_)" fill="#63666A" d="M37.832,428.72c10.452,0,19.654-4.886,25.676-12.497H12.27
		C18.178,423.834,27.494,428.72,37.832,428.72"/>
	<rect x="81.935" y="368.62" fill="none" width="128.879" height="25.403"/>
	
		<text transform="matrix(1 0 0 1 81.9351 378.4482)" fill="#63666A" font-family="'AvenirNext-Medium'" font-size="13" letter-spacing="3">POWERED BY</text>
</g>
<g id="Layer_2">
</g>
</svg>
